<?xml version="1.0" encoding="UTF-8" standalone="no"?>
<!-- Created with Inkscape (http://www.inkscape.org/) -->

<svg
   width="210mm"
   height="297mm"
   viewBox="0 0 210 297"
   version="1.1"
   id="svg1"
   xml:space="preserve"
   inkscape:version="1.3.2 (091e20e, 2023-11-25, custom)"
   sodipodi:docname="cube panel perfect.svg"
   xmlns:inkscape="http://www.inkscape.org/namespaces/inkscape"
   xmlns:sodipodi="http://sodipodi.sourceforge.net/DTD/sodipodi-0.dtd"
   xmlns="http://www.w3.org/2000/svg"
   xmlns:svg="http://www.w3.org/2000/svg"><sodipodi:namedview
     id="namedview1"
     pagecolor="#ffffff"
     bordercolor="#000000"
     borderopacity="0.25"
     inkscape:showpageshadow="2"
     inkscape:pageopacity="0.0"
     inkscape:pagecheckerboard="0"
     inkscape:deskcolor="#d1d1d1"
     inkscape:document-units="mm"
     inkscape:zoom="4.1373683"
     inkscape:cx="200.36892"
     inkscape:cy="615.48787"
     inkscape:window-width="1920"
     inkscape:window-height="1017"
     inkscape:window-x="-8"
     inkscape:window-y="-8"
     inkscape:window-maximized="1"
     inkscape:current-layer="g1"><inkscape:page
       x="0"
       y="0"
       width="210"
       height="297"
       id="page1"
       margin="0"
       bleed="0" /><inkscape:page
       x="220"
       y="0"
       width="210.06"
       height="279.40002"
       id="page2"
       margin="0"
       bleed="0" /></sodipodi:namedview><defs
     id="defs1"><clipPath
       clipPathUnits="userSpaceOnUse"
       id="clipPath2"><path
         d="M 0,0.028 H 595.417 V 791.999 H 0 Z"
         transform="matrix(1,0,0,-1,-390.70001,762.80002)"
         clip-rule="evenodd"
         id="path2" /></clipPath><clipPath
       clipPathUnits="userSpaceOnUse"
       id="clipPath3"><path
         d="M 0,0.028 H 595.417 V 791.999 H 0 Z"
         transform="matrix(1,0,0,-1,-554.30002,21.000001)"
         clip-rule="evenodd"
         id="path3" /></clipPath><clipPath
       clipPathUnits="userSpaceOnUse"
       id="clipPath4"><path
         d="M 0,0.028 H 595.417 V 791.999 H 0 Z"
         transform="matrix(1,0,0,-1,-560.50201,21.000001)"
         clip-rule="evenodd"
         id="path4" /></clipPath><clipPath
       clipPathUnits="userSpaceOnUse"
       id="clipPath5"><path
         d="m 27.399,57.5 h 539.899 v 684 H 27.399 Z"
         transform="matrix(0.00185185,0,0,-0.00146199,-0.05064815,1.0841374)"
         clip-rule="evenodd"
         id="path5" /></clipPath></defs><g
     id="g1"
     inkscape:groupmode="layer"
     inkscape:label="11"
     transform="matrix(0.26458333,0,0,0.26458334,220.00001,0)"
     style="display:inline;mix-blend-mode:darken"><path
       style="display:inline;fill:#000000"
       d="m -523.91655,740.32238 c -1.14035,-1.37404 -0.29605,-3.01838 1.42384,-2.77304 1.64027,0.23398 2.32782,2.33744 1.03237,3.1584 -1.19981,0.76036 -1.55108,0.70524 -2.45621,-0.38536 z"
       id="path20" /><path
       style="display:inline;fill:#000000"
       d="m -520.71655,725.60238 c -1.14035,-1.37404 -0.29605,-3.01838 1.42384,-2.77304 1.64027,0.23398 2.32782,2.33744 1.03237,3.1584 -1.19981,0.76036 -1.55108,0.70524 -2.45621,-0.38536 z"
       id="path22" /><path
       style="display:inline;fill:#000000"
       d="m -518.57187,710.23423 c -0.507,-1.32123 0.18043,-2.88 1.27011,-2.88 1.28119,0 2.54969,1.7264 2.11014,2.87185 -0.47981,1.25035 -2.90133,1.25619 -3.38025,0.008 z"
       id="path24" /><path
       style="display:inline;fill:#000000"
       d="m -516.5176,695.46851 c -1.28715,-1.28715 -0.57602,-2.83428 1.30276,-2.83428 1.18871,0 1.53153,0.34282 1.53153,1.53153 0,1.87878 -1.54713,2.58991 -2.83429,1.30275 z"
       id="path26" /><path
       style="display:inline;fill:#000000"
       d="m -516.01187,680.15419 c -0.56166,-1.46368 0.22518,-2.88 1.6,-2.88 1.51375,0 2.29094,1.76859 1.30124,2.96112 -0.96289,1.16021 -2.44075,1.11889 -2.90124,-0.0811 z"
       id="path28" /><path
       style="display:inline;fill:#000000"
       d="m -516.24331,664.22269 c 0,-1.87879 1.54713,-2.58991 2.83429,-1.30276 1.28715,1.28716 0.57602,2.83429 -1.30276,2.83429 -1.18871,0 -1.53153,-0.34283 -1.53153,-1.53153 z"
       id="path30" /><path
       style="display:inline;fill:#000000"
       d="m -516.5176,650.02851 c -1.28715,-1.28715 -0.57602,-2.83428 1.30276,-2.83428 1.18871,0 1.53153,0.34282 1.53153,1.53153 0,1.87878 -1.54713,2.58991 -2.83429,1.30275 z"
       id="path32" /><path
       style="display:inline;fill:#000000"
       d="m -518.57187,634.71423 c -0.507,-1.32123 0.18043,-2.88 1.27011,-2.88 1.28119,0 2.54969,1.7264 2.11014,2.87185 -0.47981,1.25035 -2.90133,1.25619 -3.38025,0.008 z"
       id="path34" /><path
       style="display:inline;fill:#000000"
       d="m -520.71655,620.00238 c -1.14035,-1.37404 -0.29605,-3.01838 1.42384,-2.77304 1.64027,0.23398 2.32782,2.33744 1.03237,3.1584 -1.19981,0.76036 -1.55108,0.70524 -2.45621,-0.38536 z"
       id="path36" /><path
       style="display:inline;fill:#000000"
       d="m -523.91655,605.28238 c -1.14035,-1.37404 -0.29605,-3.01838 1.42384,-2.77304 1.64027,0.23398 2.32782,2.33744 1.03237,3.1584 -1.19981,0.76036 -1.55108,0.70524 -2.45621,-0.38536 z"
       id="path38" /><path
       style="display:inline;fill:#000000"
       d="m -527.66628,590.94774 c -1.29545,-0.82096 -0.6079,-2.92442 1.03237,-3.1584 1.71989,-0.24534 2.56419,1.399 1.42384,2.77304 -0.90513,1.0906 -1.2564,1.14572 -2.45621,0.38536 z"
       id="path40" /><path
       style="display:inline;fill:#000000"
       d="m -542.69664,586.60756 c -0.81075,-0.81074 -0.42299,-2.6378 0.64696,-3.04838 1.3595,-0.52169 3.06753,1.12712 2.55397,2.46542 -0.38898,1.01368 -2.40335,1.38054 -3.20093,0.58296 z"
       id="path42" /><path
       style="display:inline;fill:#000000"
       d="m -557.41664,583.40756 c -0.81075,-0.81074 -0.42299,-2.6378 0.64696,-3.04838 1.3595,-0.52169 3.06753,1.12712 2.55397,2.46542 -0.38898,1.01368 -2.40335,1.38054 -3.20093,0.58296 z"
       id="path44" /><path
       style="display:inline;fill:#000000"
       d="m -572.1976,580.90851 c -1.28715,-1.28715 -0.57602,-2.83428 1.30276,-2.83428 1.18871,0 1.53153,0.34282 1.53153,1.53153 0,1.87878 -1.54713,2.58991 -2.83429,1.30275 z"
       id="path46" /><path
       style="display:inline;fill:#000000"
       d="m -587.69187,579.03423 c -0.507,-1.32123 0.18043,-2.88 1.27011,-2.88 1.28119,0 2.54969,1.7264 2.11014,2.87185 -0.47981,1.25035 -2.90133,1.25619 -3.38025,0.008 z"
       id="path48" /><path
       style="display:inline;fill:#000000"
       d="m -602.61377,578.42983 c -1.1618,-1.3999 -0.33356,-3.04774 1.4076,-2.80049 1.05533,0.14986 1.44286,0.63227 1.44286,1.79612 0,1.86734 -1.65135,2.4492 -2.85046,1.00437 z"
       id="path50" /><path
       style="display:inline;fill:#000000"
       d="m -617.77187,578.39423 c -0.56166,-1.46368 0.22518,-2.88 1.6,-2.88 1.51375,0 2.29094,1.76859 1.30124,2.96112 -0.96289,1.16021 -2.44075,1.11889 -2.90124,-0.0811 z"
       id="path49" /><path
       style="display:inline;fill:#000000"
       d="m -633.13187,579.03423 c -0.507,-1.32123 0.18043,-2.88 1.27011,-2.88 1.28119,0 2.54969,1.7264 2.11014,2.87185 -0.47981,1.25035 -2.90133,1.25619 -3.38025,0.008 z"
       id="path47" /><path
       style="display:inline;fill:#000000"
       d="m -647.7176,580.90851 c -1.28715,-1.28715 -0.57602,-2.83428 1.30276,-2.83428 1.18871,0 1.53153,0.34282 1.53153,1.53153 0,1.87878 -1.54713,2.58991 -2.83429,1.30275 z"
       id="path45" /><path
       style="display:inline;fill:#000000"
       d="m -663.01664,583.40756 c -0.81075,-0.81074 -0.42299,-2.6378 0.64696,-3.04838 1.3595,-0.52169 3.06753,1.12712 2.55397,2.46542 -0.38898,1.01368 -2.40335,1.38054 -3.20093,0.58296 z"
       id="path43" /><path
       style="display:inline;fill:#000000"
       d="m -677.73664,586.60756 c -0.81075,-0.81074 -0.42299,-2.6378 0.64696,-3.04838 1.3595,-0.52169 3.06753,1.12712 2.55397,2.46542 -0.38898,1.01368 -2.40335,1.38054 -3.20093,0.58296 z"
       id="path41" /><path
       style="display:inline;fill:#000000"
       d="m -692.14628,590.94774 c -1.29545,-0.82096 -0.6079,-2.92442 1.03237,-3.1584 1.71989,-0.24534 2.56419,1.399 1.42384,2.77304 -0.90513,1.0906 -1.2564,1.14572 -2.45621,0.38536 z"
       id="path39" /><path
       style="display:inline;fill:#000000"
       d="m -695.92331,605.81037 c -0.44,-0.17755 -0.8,-1.01881 -0.8,-1.86948 0,-1.20467 0.33865,-1.54666 1.53153,-1.54666 1.89497,0 2.58626,1.55078 1.27556,2.86148 -0.53818,0.53818 -1.02995,0.95578 -1.0928,0.92799 -0.0629,-0.0278 -0.47429,-0.19579 -0.91429,-0.37333 z"
       id="path37" /><path
       style="display:inline;fill:#000000"
       d="m -699.12331,620.53037 c -0.44,-0.17755 -0.8,-1.01881 -0.8,-1.86948 0,-1.20467 0.33865,-1.54666 1.53153,-1.54666 1.89497,0 2.58626,1.55078 1.27556,2.86148 -0.53818,0.53818 -1.02995,0.95578 -1.0928,0.92799 -0.0629,-0.0278 -0.47429,-0.19579 -0.91429,-0.37333 z"
       id="path35" /><path
       style="display:inline;fill:#000000"
       d="m -702.25187,634.71423 c -0.507,-1.32123 0.18043,-2.88 1.27011,-2.88 1.28119,0 2.54969,1.7264 2.11014,2.87185 -0.47981,1.25035 -2.90133,1.25619 -3.38025,0.008 z"
       id="path33" /><path
       style="display:inline;fill:#000000"
       d="m -703.3976,650.02851 c -1.28715,-1.28715 -0.57602,-2.83428 1.30276,-2.83428 1.18871,0 1.53153,0.34282 1.53153,1.53153 0,1.87878 -1.54713,2.58991 -2.83429,1.30275 z"
       id="path31" /><path
       style="display:inline;fill:#000000"
       d="m -704.81369,664.78948 c -0.22256,-0.57998 0.0156,-1.47477 0.52924,-1.9884 1.28058,-1.28059 3.20134,-0.45208 2.95498,1.2746 -0.24273,1.70122 -2.89667,2.24492 -3.48422,0.7138 z"
       id="path29" /><path
       style="display:inline;fill:#000000"
       d="m -704.37377,680.18979 c -1.1618,-1.3999 -0.33356,-3.04774 1.4076,-2.80049 1.05533,0.14986 1.44286,0.63227 1.44286,1.79612 0,1.86734 -1.65135,2.4492 -2.85046,1.00437 z"
       id="path27" /><path
       style="display:inline;fill:#000000"
       d="m -703.3976,695.46851 c -1.28715,-1.28715 -0.57602,-2.83428 1.30276,-2.83428 1.18871,0 1.53153,0.34282 1.53153,1.53153 0,1.87878 -1.54713,2.58991 -2.83429,1.30275 z"
       id="path25" /><path
       style="display:inline;fill:#000000"
       d="m -702.25187,710.23423 c -0.507,-1.32123 0.18043,-2.88 1.27011,-2.88 1.28119,0 2.54969,1.7264 2.11014,2.87185 -0.47981,1.25035 -2.90133,1.25619 -3.38025,0.008 z"
       id="path23" /><path
       style="display:inline;fill:#000000"
       d="m -699.12331,726.13037 c -0.44,-0.17755 -0.8,-1.01881 -0.8,-1.86948 0,-1.20467 0.33865,-1.54666 1.53153,-1.54666 1.89497,0 2.58626,1.55078 1.27556,2.86148 -0.53818,0.53818 -1.02995,0.95578 -1.0928,0.92799 -0.0629,-0.0278 -0.47429,-0.19579 -0.91429,-0.37333 z"
       id="path21" /><path
       style="display:inline;fill:#000000"
       d="m -695.92331,740.85037 c -0.44,-0.17755 -0.8,-1.01881 -0.8,-1.86948 0,-1.20467 0.33865,-1.54666 1.53153,-1.54666 1.89497,0 2.58626,1.55078 1.27556,2.86148 -0.53818,0.53818 -1.02995,0.95578 -1.0928,0.92799 -0.0629,-0.0278 -0.47429,-0.19579 -0.91429,-0.37333 z"
       id="path19" /><path
       style="display:inline;fill:#000000"
       d="m -692.14628,755.42774 c -1.29545,-0.82096 -0.6079,-2.92442 1.03237,-3.1584 1.71989,-0.24534 2.56419,1.399 1.42384,2.77304 -0.90513,1.0906 -1.2564,1.14572 -2.45621,0.38536 z"
       id="path17" /><path
       style="display:inline;fill:#000000"
       d="m -677.93187,758.87423 c -0.5744,-1.49686 0.23655,-2.88 1.68856,-2.88 1.6283,0 2.33666,1.60681 1.27324,2.88815 -1.01628,1.22453 -2.49033,1.22047 -2.9618,-0.008 z"
       id="path15" /><path
       style="display:inline;fill:#000000"
       d="m -663.21187,762.07423 c -0.5744,-1.49686 0.23655,-2.88 1.68856,-2.88 1.6283,0 2.33666,1.60681 1.27324,2.88815 -1.01628,1.22453 -2.49033,1.22047 -2.9618,-0.008 z"
       id="path13" /><path
       style="display:inline;fill:#000000"
       d="m -647.7176,764.58851 c -1.28715,-1.28715 -0.57602,-2.83428 1.30276,-2.83428 1.18871,0 1.53153,0.34282 1.53153,1.53153 0,1.87878 -1.54713,2.58991 -2.83429,1.30275 z"
       id="path11" /><path
       style="display:inline;fill:#000000"
       d="m -633.13187,765.91423 c -0.507,-1.32123 0.18043,-2.88 1.27011,-2.88 1.28119,0 2.54969,1.7264 2.11014,2.87185 -0.47981,1.25035 -2.90133,1.25619 -3.38025,0.008 z"
       id="path9" /><path
       style="display:inline;fill:#000000"
       d="m -618.00331,765.9827 c 0,-1.87879 1.54713,-2.58991 2.83429,-1.30276 1.28715,1.28716 0.57602,2.83429 -1.30276,2.83429 -1.18871,0 -1.53153,-0.34283 -1.53153,-1.53153 z"
       id="path7" /><path
       style="display:inline;fill:#000000"
       d="m -603.05369,766.54949 c -0.22256,-0.57998 0.0156,-1.47477 0.52924,-1.9884 1.28058,-1.28059 3.20134,-0.45208 2.95498,1.2746 -0.24273,1.70122 -2.89667,2.24492 -3.48422,0.7138 z"
       id="path8" /><path
       style="display:inline;fill:#000000"
       d="m -587.69187,765.91423 c -0.507,-1.32123 0.18043,-2.88 1.27011,-2.88 1.28119,0 2.54969,1.7264 2.11014,2.87185 -0.47981,1.25035 -2.90133,1.25619 -3.38025,0.008 z"
       id="path10" /><path
       style="display:inline;fill:#000000"
       d="m -572.1976,764.58851 c -1.28715,-1.28715 -0.57602,-2.83428 1.30276,-2.83428 1.18871,0 1.53153,0.34282 1.53153,1.53153 0,1.87878 -1.54713,2.58991 -2.83429,1.30275 z"
       id="path12" /><path
       style="display:inline;fill:#000000"
       d="m -557.61187,762.07423 c -0.5744,-1.49686 0.23655,-2.88 1.68856,-2.88 1.6283,0 2.33666,1.60681 1.27324,2.88815 -1.01628,1.22453 -2.49033,1.22047 -2.9618,-0.008 z"
       id="path14" /><path
       style="display:inline;fill:#000000"
       d="m -542.89187,758.87423 c -0.5744,-1.49686 0.23655,-2.88 1.68856,-2.88 1.6283,0 2.33666,1.60681 1.27324,2.88815 -1.01628,1.22453 -2.49033,1.22047 -2.9618,-0.008 z"
       id="path16" /><path
       style="display:inline;fill:#000000"
       d="m -527.66628,755.42774 c -1.29545,-0.82096 -0.6079,-2.92442 1.03237,-3.1584 1.71989,-0.24534 2.56419,1.399 1.42384,2.77304 -0.90513,1.0906 -1.2564,1.14572 -2.45621,0.38536 z"
       id="path18" /></g><g
     inkscape:groupmode="layer"
     id="layer1"
     inkscape:label="12"><path
       id="path6"
       style="display:none;mix-blend-mode:darken;fill:#000000"
       d="m -665.04298,572.05467 c -13.10171,2.54243 -33.01222,7.82824 -34.35547,9.1211 -0.31151,0.29982 -16.78017,47.15918 -14.33985,100.73828 0.60635,13.31275 6.28092,77.89081 18.7461,81.76171 20.14019,6.53392 89.57959,24.95706 171.53125,0.23828 l 5.26367,-1.58593 c 6.7344,-21.99585 14.11328,-52.79007 14.11328,-82.27735 v -17.05664 c 0,-34.12543 -10.71042,-71.32415 -14.07617,-82.19335 -33.62109,-9.82108 -81.79159,-21.37722 -146.88281,-8.7461 z"
       sodipodi:nodetypes="ssssccsscs"
       transform="matrix(0.26458333,0,0,0.26458333,220.00001,0)" /></g></svg>
