<?xml version="1.0" encoding="UTF-8" standalone="no"?>
<!-- Created with Inkscape (http://www.inkscape.org/) -->

<svg
   version="1.1"
   id="svg1"
   width="793.92755"
   height="1056"
   viewBox="0 0 793.92755 1056"
   sodipodi:docname="cube juggling ball.svg"
   inkscape:version="1.3.2 (091e20e, 2023-11-25, custom)"
   xmlns:inkscape="http://www.inkscape.org/namespaces/inkscape"
   xmlns:sodipodi="http://sodipodi.sourceforge.net/DTD/sodipodi-0.dtd"
   xmlns="http://www.w3.org/2000/svg"
   xmlns:svg="http://www.w3.org/2000/svg">
  <defs
     id="defs1">
    <clipPath
       clipPathUnits="userSpaceOnUse"
       id="clipPath2">
      <path
         d="M 0,0.028 H 595.417 V 791.999 H 0 Z"
         transform="matrix(1,0,0,-1,-390.70001,762.80002)"
         clip-rule="evenodd"
         id="path2" />
    </clipPath>
    <clipPath
       clipPathUnits="userSpaceOnUse"
       id="clipPath3">
      <path
         d="M 0,0.028 H 595.417 V 791.999 H 0 Z"
         transform="matrix(1,0,0,-1,-554.30002,21.000001)"
         clip-rule="evenodd"
         id="path3" />
    </clipPath>
    <clipPath
       clipPathUnits="userSpaceOnUse"
       id="clipPath4">
      <path
         d="M 0,0.028 H 595.417 V 791.999 H 0 Z"
         transform="matrix(1,0,0,-1,-560.50201,21.000001)"
         clip-rule="evenodd"
         id="path4" />
    </clipPath>
    <clipPath
       clipPathUnits="userSpaceOnUse"
       id="clipPath5">
      <path
         d="m 27.399,57.5 h 539.899 v 684 H 27.399 Z"
         transform="matrix(0.00185185,0,0,-0.00146199,-0.05064815,1.0841374)"
         clip-rule="evenodd"
         id="path5" />
    </clipPath>
    <inkscape:path-effect
       effect="fill_between_many"
       method="originald"
       linkedpaths="#path6,0,1|"
       id="path-effect6" />
  </defs>
  <sodipodi:namedview
     id="namedview1"
     pagecolor="#ffffff"
     bordercolor="#000000"
     borderopacity="0.25"
     inkscape:showpageshadow="2"
     inkscape:pageopacity="0.0"
     inkscape:pagecheckerboard="0"
     inkscape:deskcolor="#d1d1d1"
     inkscape:zoom="3.1098485"
     inkscape:cx="216.40926"
     inkscape:cy="712.73569"
     inkscape:window-width="1920"
     inkscape:window-height="1017"
     inkscape:window-x="-8"
     inkscape:window-y="-8"
     inkscape:window-maximized="1"
     inkscape:current-layer="g1">
    <inkscape:page
       x="0"
       y="0"
       inkscape:label="11"
       id="page1"
       width="793.92755"
       height="1056"
       margin="0"
       bleed="0" />
  </sodipodi:namedview>
  <g
     id="g1"
     inkscape:groupmode="layer"
     inkscape:label="11">
    <path
       inkscape:original-d="M 0,0"
       inkscape:path-effect="#path-effect6"
       d="m 222.70667,805.38858 11.36,-0.41337 c 24.87451,-0.90514 48.7933,-5.46191 73.2211,-12.82995 l 5.26286,-1.58741 1.90012,-6.2065 c 7.26874,-23.74243 12.57592,-54.05977 12.57592,-75.58696 v -9.1772 0 -7.88008 c 0,-21.0508 -5.32613,-53.94413 -12.46739,-76.99658 l -1.60984,-5.19666 -6.98029,-2.0399 c -25.47234,-7.44397 -56.071,-12.20678 -78.42241,-12.20678 h -4.84007 v 0 l -11.68,0.24678 c -16.45961,0.34777 -29.14029,2.18386 -44.96,5.25372 -13.10172,2.54243 -33.01112,7.82857 -34.35437,9.12143 -0.62597,0.60248 -5.30079,17.11233 -7.18589,25.37807 -3.737,16.38587 -6.30865,35.9984 -7.15407,54.56 l -0.44454,9.76 v 0 l 0.44454,11.04 c 0.98584,24.48296 4.69104,47.16703 10.91628,69.26005 3.28809,11.66925 2.83851,10.95138 7.82902,12.50112 24.11389,7.48825 54.64533,12.50257 77.46903,12.72308 z"
       id="path7" />
    <path
       style="fill:#000000"
       d="m 222.70667,805.38858 11.36,-0.41337 c 24.87451,-0.90514 48.7933,-5.46191 73.2211,-12.82995 l 5.26286,-1.58741 1.90012,-6.2065 c 7.26874,-23.74243 12.57592,-54.05977 12.57592,-75.58696 v -9.1772 0 -7.88008 c 0,-21.0508 -5.32613,-53.94413 -12.46739,-76.99658 l -1.60984,-5.19666 -6.98029,-2.0399 c -25.47234,-7.44397 -56.071,-12.20678 -78.42241,-12.20678 h -4.84007 v 0 l -11.68,0.24678 c -16.45961,0.34777 -29.14029,2.18386 -44.96,5.25372 -13.10172,2.54243 -33.01112,7.82857 -34.35437,9.12143 -0.62597,0.60248 -5.30079,17.11233 -7.18589,25.37807 -3.737,16.38587 -6.30865,35.9984 -7.15407,54.56 l -0.44454,9.76 v 0 l 0.44454,11.04 c 0.98584,24.48296 4.69104,47.16703 10.91628,69.26005 3.28809,11.66925 2.83851,10.95138 7.82902,12.50112 24.11389,7.48825 54.64533,12.50257 77.46903,12.72308 z m -9.6,-10.69292 c 0,-1.87879 1.54713,-2.58991 2.83428,-1.30276 1.28716,1.28716 0.57603,2.83429 -1.30276,2.83429 -1.1887,0 -1.53152,-0.34283 -1.53152,-1.53153 z m 14.94962,0.56679 c -0.22256,-0.57998 0.0156,-1.47477 0.52923,-1.98841 1.28059,-1.28058 3.20135,-0.45207 2.95499,1.2746 -0.24274,1.70122 -2.89667,2.24493 -3.48422,0.71381 z m -30.07818,-0.63526 c -0.50701,-1.32123 0.18043,-2.88 1.27011,-2.88 1.28118,0 2.54968,1.7264 2.11013,2.87185 -0.4798,1.25035 -2.90132,1.25619 -3.38024,0.008 z m 45.44,0 c -0.50701,-1.32123 0.18043,-2.88 1.27011,-2.88 1.28118,0 2.54968,1.7264 2.11013,2.87185 -0.4798,1.25035 -2.90132,1.25619 -3.38024,0.008 z m -60.02573,-1.32572 c -1.28715,-1.28715 -0.57603,-2.83428 1.30276,-2.83428 1.1887,0 1.53153,0.34282 1.53153,1.53152 0,1.87879 -1.54713,2.58992 -2.83429,1.30276 z m 75.52,0 c -1.28715,-1.28715 -0.57603,-2.83428 1.30276,-2.83428 1.1887,0 1.53153,0.34282 1.53153,1.53152 0,1.87879 -1.54713,2.58992 -2.83429,1.30276 z m -91.01427,-2.51428 c -0.5744,-1.49686 0.23655,-2.88 1.68856,-2.88 1.6283,0 2.33665,1.6068 1.27323,2.88815 -1.01627,1.22453 -2.49032,1.22047 -2.96179,-0.008 z m 105.6,0 c -0.5744,-1.49686 0.23655,-2.88 1.68856,-2.88 1.6283,0 2.33665,1.6068 1.27323,2.88815 -1.01627,1.22453 -2.49032,1.22047 -2.96179,-0.008 z m -120.32,-3.2 c -0.5744,-1.49686 0.23655,-2.88 1.68856,-2.88 1.6283,0 2.33665,1.6068 1.27323,2.88815 -1.01627,1.22453 -2.49032,1.22047 -2.96179,-0.008 z m 135.04,0 c -0.5744,-1.49686 0.23655,-2.88 1.68856,-2.88 1.6283,0 2.33665,1.6068 1.27323,2.88815 -1.01627,1.22453 -2.49032,1.22047 -2.96179,-0.008 z M 138.9637,784.14018 c -1.29545,-0.82096 -0.6079,-2.92442 1.03237,-3.1584 1.71989,-0.24534 2.56418,1.399 1.42383,2.77304 -0.90512,1.0906 -1.25639,1.14571 -2.4562,0.38536 z m 164.48,0 c -1.29545,-0.82096 -0.6079,-2.92442 1.03237,-3.1584 1.71989,-0.24534 2.56418,1.399 1.42383,2.77304 -0.90512,1.0906 -1.25639,1.14571 -2.4562,0.38536 z M 135.18667,769.56281 c -0.44,-0.17755 -0.8,-1.01881 -0.8,-1.86948 0,-1.20467 0.33864,-1.54666 1.53152,-1.54666 1.89497,0 2.58627,1.55078 1.27557,2.86148 -0.53819,0.53818 -1.02995,0.95578 -1.09281,0.92799 -0.0629,-0.0278 -0.47428,-0.19579 -0.91428,-0.37333 z m 172.00676,-0.52799 c -1.14035,-1.37404 -0.29605,-3.01838 1.42384,-2.77304 1.64027,0.23398 2.32782,2.33744 1.03237,3.1584 -1.19982,0.76035 -1.55109,0.70524 -2.45621,-0.38536 z M 131.98667,754.84281 c -0.44,-0.17755 -0.8,-1.01881 -0.8,-1.86948 0,-1.20467 0.33864,-1.54666 1.53152,-1.54666 1.89497,0 2.58627,1.55078 1.27557,2.86148 -0.53819,0.53818 -1.02995,0.95578 -1.09281,0.92799 -0.0628,-0.0278 -0.47428,-0.19579 -0.91428,-0.37333 z m 178.40676,-0.52799 c -1.14035,-1.37404 -0.29605,-3.01838 1.42384,-2.77304 1.64027,0.23398 2.32782,2.33744 1.03237,3.1584 -1.19982,0.76035 -1.55109,0.70524 -2.45621,-0.38536 z M 128.85811,738.94667 c -0.50701,-1.32123 0.18043,-2.88 1.27011,-2.88 1.28118,0 2.54968,1.7264 2.11013,2.87185 -0.4798,1.25035 -2.90132,1.25619 -3.38024,0.008 z m 183.68,0 c -0.50701,-1.32123 0.18043,-2.88 1.27011,-2.88 1.28118,0 2.54968,1.7264 2.11013,2.87185 -0.4798,1.25035 -2.90132,1.25619 -3.38024,0.008 z M 127.71238,724.18095 c -1.28715,-1.28715 -0.57603,-2.83428 1.30276,-2.83428 1.1887,0 1.53153,0.34282 1.53153,1.53152 0,1.87879 -1.54713,2.58992 -2.83429,1.30276 z m 186.88,0 c -1.28715,-1.28715 -0.57603,-2.83428 1.30276,-2.83428 1.1887,0 1.53153,0.34282 1.53153,1.53152 0,1.87879 -1.54713,2.58992 -2.83429,1.30276 z M 126.73621,708.90223 c -1.16181,-1.3999 -0.33356,-3.04774 1.4076,-2.80049 1.05532,0.14986 1.44286,0.63227 1.44286,1.79612 0,1.86734 -1.65135,2.4492 -2.85046,1.00437 z m 188.3619,-0.0356 c -0.56167,-1.46368 0.22518,-2.88 1.6,-2.88 1.51375,0 2.29094,1.76859 1.30123,2.96112 -0.96289,1.16021 -2.44075,1.11889 -2.90123,-0.0811 z m -188.80182,-15.3647 c -0.22256,-0.57998 0.0156,-1.47477 0.52923,-1.98841 1.28059,-1.28058 3.20135,-0.45207 2.95499,1.2746 -0.24274,1.70122 -2.89667,2.24493 -3.48422,0.71381 z m 188.57038,-0.56679 c 0,-1.87879 1.54713,-2.58991 2.83428,-1.30276 1.28716,1.28716 0.57603,2.83429 -1.30276,2.83429 -1.1887,0 -1.53152,-0.34283 -1.53152,-1.53153 z M 127.71238,678.74095 c -1.28715,-1.28715 -0.57603,-2.83428 1.30276,-2.83428 1.1887,0 1.53153,0.34282 1.53153,1.53152 0,1.87879 -1.54713,2.58992 -2.83429,1.30276 z m 186.88,0 c -1.28715,-1.28715 -0.57603,-2.83428 1.30276,-2.83428 1.1887,0 1.53153,0.34282 1.53153,1.53152 0,1.87879 -1.54713,2.58992 -2.83429,1.30276 z M 128.85811,663.42667 c -0.50701,-1.32123 0.18043,-2.88 1.27011,-2.88 1.28118,0 2.54968,1.7264 2.11013,2.87185 -0.4798,1.25035 -2.90132,1.25619 -3.38024,0.008 z m 183.68,0 c -0.50701,-1.32123 0.18043,-2.88 1.27011,-2.88 1.28118,0 2.54968,1.7264 2.11013,2.87185 -0.4798,1.25035 -2.90132,1.25619 -3.38024,0.008 z M 131.98667,649.24281 c -0.44,-0.17755 -0.8,-1.01881 -0.8,-1.86948 0,-1.20467 0.33864,-1.54666 1.53152,-1.54666 1.89497,0 2.58627,1.55078 1.27557,2.86148 -0.53819,0.53818 -1.02995,0.95578 -1.09281,0.92799 -0.0628,-0.0278 -0.47428,-0.19579 -0.91428,-0.37333 z m 178.40676,-0.52799 c -1.14035,-1.37404 -0.29605,-3.01838 1.42384,-2.77304 1.64027,0.23398 2.32782,2.33744 1.03237,3.1584 -1.19982,0.76035 -1.55109,0.70524 -2.45621,-0.38536 z M 135.18667,634.52281 c -0.44,-0.17755 -0.8,-1.01881 -0.8,-1.86948 0,-1.20467 0.33864,-1.54666 1.53152,-1.54666 1.89497,0 2.58627,1.55078 1.27557,2.86148 -0.53819,0.53818 -1.02995,0.95578 -1.09281,0.92799 -0.0629,-0.0278 -0.47428,-0.19579 -0.91428,-0.37333 z m 172.00676,-0.52799 c -1.14035,-1.37404 -0.29605,-3.01838 1.42384,-2.77304 1.64027,0.23398 2.32782,2.33744 1.03237,3.1584 -1.19982,0.76035 -1.55109,0.70524 -2.45621,-0.38536 z M 138.9637,619.66018 c -1.29545,-0.82096 -0.6079,-2.92442 1.03237,-3.1584 1.71989,-0.24534 2.56418,1.399 1.42383,2.77304 -0.90512,1.0906 -1.25639,1.14571 -2.4562,0.38536 z m 164.48,0 c -1.29545,-0.82096 -0.6079,-2.92442 1.03237,-3.1584 1.71989,-0.24534 2.56418,1.399 1.42383,2.77304 -0.90512,1.0906 -1.25639,1.14571 -2.4562,0.38536 z M 153.37333,615.32 c -0.81074,-0.81075 -0.42298,-2.6378 0.64696,-3.04838 1.35951,-0.52169 3.06754,1.12711 2.55398,2.46542 -0.38899,1.01368 -2.40336,1.38054 -3.20094,0.58296 z m 135.04,0 c -0.81074,-0.81075 -0.42298,-2.6378 0.64696,-3.04838 1.35951,-0.52169 3.06754,1.12711 2.55398,2.46542 -0.38899,1.01368 -2.40336,1.38054 -3.20094,0.58296 z m -120.32,-3.2 c -0.81074,-0.81075 -0.42298,-2.6378 0.64696,-3.04838 1.35951,-0.52169 3.06754,1.12711 2.55398,2.46542 -0.38899,1.01368 -2.40336,1.38054 -3.20094,0.58296 z m 105.6,0 c -0.81074,-0.81075 -0.42298,-2.6378 0.64696,-3.04838 1.35951,-0.52169 3.06754,1.12711 2.55398,2.46542 -0.38899,1.01368 -2.40336,1.38054 -3.20094,0.58296 z m -90.30095,-2.49905 c -1.28715,-1.28715 -0.57603,-2.83428 1.30276,-2.83428 1.1887,0 1.53153,0.34282 1.53153,1.53152 0,1.87879 -1.54713,2.58992 -2.83429,1.30276 z m 75.52,0 c -1.28715,-1.28715 -0.57603,-2.83428 1.30276,-2.83428 1.1887,0 1.53153,0.34282 1.53153,1.53152 0,1.87879 -1.54713,2.58992 -2.83429,1.30276 z m -60.93427,-1.87428 c -0.50701,-1.32123 0.18043,-2.88 1.27011,-2.88 1.28118,0 2.54968,1.7264 2.11013,2.87185 -0.4798,1.25035 -2.90132,1.25619 -3.38024,0.008 z m 45.44,0 c -0.50701,-1.32123 0.18043,-2.88 1.27011,-2.88 1.28118,0 2.54968,1.7264 2.11013,2.87185 -0.4798,1.25035 -2.90132,1.25619 -3.38024,0.008 z m -30.08,-0.64 c -0.56167,-1.46368 0.22518,-2.88 1.6,-2.88 1.51375,0 2.29094,1.76859 1.30123,2.96112 -0.96289,1.16021 -2.44075,1.11889 -2.90123,-0.0811 z m 15.1581,0.0356 c -1.16181,-1.3999 -0.33356,-3.04774 1.4076,-2.80049 1.05532,0.14986 1.44286,0.63227 1.44286,1.79612 0,1.86734 -1.65135,2.4492 -2.85046,1.00437 z"
       id="path6"
       sodipodi:nodetypes="csscssccsscssccsssssccsssscssssssssccsscccsscssssssssssssssssssssssssssssssssssssssssssssssssssssssssccsscccsscsssssssssssssssssssssssssssssssssccsscccsscssssssssssssssssssssssssssssssssssssssssssssssssssssccsscccsscsssssssss" />
  </g>
</svg>
