<?xml version="1.0" encoding="UTF-8" standalone="no"?>
<!-- Created with Inkscape (http://www.inkscape.org/) -->

<svg
   width="210mm"
   height="297mm"
   viewBox="0 0 210 297"
   version="1.1"
   id="svg1"
   inkscape:version="1.3.2 (091e20e, 2023-11-25, custom)"
   sodipodi:docname="juggling bLL.svg"
   xmlns:inkscape="http://www.inkscape.org/namespaces/inkscape"
   xmlns:sodipodi="http://sodipodi.sourceforge.net/DTD/sodipodi-0.dtd"
   xmlns="http://www.w3.org/2000/svg"
   xmlns:svg="http://www.w3.org/2000/svg">
  <sodipodi:namedview
     id="namedview1"
     pagecolor="#ffffff"
     bordercolor="#000000"
     borderopacity="0.25"
     inkscape:showpageshadow="2"
     inkscape:pageopacity="0.0"
     inkscape:pagecheckerboard="0"
     inkscape:deskcolor="#d1d1d1"
     inkscape:document-units="mm"
     inkscape:zoom="0.73139029"
     inkscape:cx="396.50513"
     inkscape:cy="561.25984"
     inkscape:window-width="1920"
     inkscape:window-height="1017"
     inkscape:window-x="-8"
     inkscape:window-y="-8"
     inkscape:window-maximized="1"
     inkscape:current-layer="layer1" />
  <defs
     id="defs1" />
  <g
     inkscape:label="Layer 1"
     inkscape:groupmode="layer"
     id="layer1">
    <path
       style="fill:#000000;stroke-width:0.264583"
       d="m 51.442232,211.5261 c -0.20404,-0.0722 -0.31441,-0.23866 -0.31441,-0.47433 0,-0.24171 0.11212,-0.40383 0.32964,-0.47665 0.42382,-0.14189 0.78993,0.22382 0.64814,0.64742 -0.0909,0.27169 -0.37977,0.40386 -0.66337,0.30356 z"
       id="path447" />
    <path
       style="fill:#000000;stroke-width:0.264583"
       d="m 54.913572,213.47344 c -0.20405,-0.0722 -0.31441,-0.23867 -0.31441,-0.47434 0,-0.24171 0.11211,-0.40383 0.32963,-0.47665 0.42382,-0.14189 0.78994,0.22382 0.64814,0.64742 -0.091,0.2717 -0.37977,0.40387 -0.66336,0.30357 z"
       id="path446" />
    <path
       style="fill:#000000;stroke-width:0.264583"
       d="m 48.013232,213.47344 c -0.20404,-0.0722 -0.31441,-0.23867 -0.31441,-0.47434 0,-0.24171 0.11212,-0.40383 0.32964,-0.47665 0.42382,-0.14189 0.78993,0.22382 0.64814,0.64742 -0.0909,0.2717 -0.37977,0.40387 -0.66337,0.30357 z"
       id="path445" />
    <path
       style="fill:#000000;stroke-width:0.264583"
       d="m 58.257902,215.63244 c -0.20405,-0.0722 -0.31441,-0.23867 -0.31441,-0.47434 0,-0.24171 0.11212,-0.40383 0.32964,-0.47665 0.42382,-0.14189 0.78993,0.22382 0.64813,0.64742 -0.091,0.2717 -0.37977,0.40387 -0.66336,0.30357 z"
       id="path444" />
    <path
       style="fill:#000000;stroke-width:0.264583"
       d="m 44.668901,215.63244 c -0.204047,-0.0722 -0.31441,-0.23867 -0.31441,-0.47434 0,-0.24171 0.112117,-0.40383 0.329637,-0.47665 0.423822,-0.14189 0.789934,0.22382 0.648139,0.64742 -0.09095,0.2717 -0.379772,0.40387 -0.663366,0.30357 z"
       id="path443" />
    <path
       style="fill:#000000;stroke-width:0.264583"
       d="m 61.432902,218.0031 c -0.20405,-0.0722 -0.31441,-0.23866 -0.31441,-0.47433 0,-0.24171 0.11212,-0.40383 0.32964,-0.47665 0.42382,-0.14189 0.78993,0.22382 0.64813,0.64742 -0.091,0.27169 -0.37977,0.40386 -0.66336,0.30356 z"
       id="path442" />
    <path
       style="fill:#000000;stroke-width:0.264583"
       d="m 41.493901,218.0031 c -0.204047,-0.0722 -0.31441,-0.23866 -0.31441,-0.47433 0,-0.24171 0.112117,-0.40383 0.329637,-0.47665 0.423822,-0.14189 0.789934,0.22382 0.648139,0.64742 -0.09095,0.27169 -0.379772,0.40386 -0.663366,0.30356 z"
       id="path441" />
    <path
       style="fill:#000000;stroke-width:0.264583"
       d="m 64.438572,220.58544 c -0.20405,-0.0722 -0.31441,-0.23867 -0.31441,-0.47434 0,-0.24171 0.11211,-0.40383 0.32963,-0.47665 0.42382,-0.14189 0.78994,0.22382 0.64814,0.64742 -0.0909,0.2717 -0.37977,0.40387 -0.66336,0.30357 z"
       id="path440" />
    <path
       style="fill:#000000;stroke-width:0.264583"
       d="m 38.488234,220.58544 c -0.204046,-0.0722 -0.314409,-0.23867 -0.314409,-0.47434 0,-0.24171 0.112117,-0.40383 0.329636,-0.47665 0.423823,-0.14189 0.789935,0.22382 0.648139,0.64742 -0.09095,0.2717 -0.379772,0.40387 -0.663366,0.30357 z"
       id="path439" />
    <path
       style="fill:#000000;stroke-width:0.264583"
       d="m 67.274902,223.3371 c -0.20405,-0.0722 -0.31441,-0.23866 -0.31441,-0.47433 0,-0.24171 0.11212,-0.40383 0.32964,-0.47665 0.42382,-0.14189 0.78993,0.22382 0.64813,0.64742 -0.0909,0.27169 -0.37977,0.40386 -0.66336,0.30356 z"
       id="path438" />
    <path
       style="fill:#000000;stroke-width:0.264583"
       d="m 35.651901,223.3371 c -0.204047,-0.0722 -0.31441,-0.23866 -0.31441,-0.47433 0,-0.24171 0.112117,-0.40383 0.329637,-0.47665 0.423823,-0.14189 0.789934,0.22382 0.648139,0.64742 -0.09095,0.27169 -0.379772,0.40386 -0.663366,0.30356 z"
       id="path437" />
    <path
       style="fill:#000000;stroke-width:0.264583"
       d="m 69.899572,226.30044 c -0.20405,-0.0722 -0.31441,-0.23867 -0.31441,-0.47434 0,-0.24171 0.11211,-0.40383 0.32963,-0.47665 0.42382,-0.14189 0.78994,0.22382 0.64814,0.64742 -0.0909,0.2717 -0.37977,0.40387 -0.66336,0.30357 z"
       id="path436" />
    <path
       style="fill:#000000;stroke-width:0.264583"
       d="m 33.027234,226.30044 c -0.204046,-0.0722 -0.314409,-0.23867 -0.314409,-0.47434 0,-0.24171 0.112117,-0.40383 0.329636,-0.47665 0.423823,-0.14189 0.789935,0.22382 0.648139,0.64742 -0.09095,0.2717 -0.379772,0.40387 -0.663366,0.30357 z"
       id="path435" />
    <path
       style="fill:#000000;stroke-width:0.264583"
       d="m 72.312572,229.4331 c -0.20405,-0.0722 -0.31441,-0.23866 -0.31441,-0.47433 0,-0.24171 0.11211,-0.40383 0.32963,-0.47665 0.42382,-0.14189 0.78994,0.22382 0.64814,0.64742 -0.091,0.27169 -0.37977,0.40386 -0.66336,0.30356 z"
       id="path434" />
    <path
       style="fill:#000000;stroke-width:0.264583"
       d="m 30.614234,229.4331 c -0.204046,-0.0722 -0.314409,-0.23866 -0.314409,-0.47433 0,-0.24171 0.112117,-0.40383 0.329636,-0.47665 0.423823,-0.14189 0.789935,0.22382 0.648139,0.64742 -0.09095,0.27169 -0.379772,0.40386 -0.663366,0.30356 z"
       id="path433" />
    <path
       style="fill:#000000;stroke-width:0.264583"
       d="m 74.513902,232.7351 c -0.20405,-0.0722 -0.31441,-0.23866 -0.31441,-0.47433 0,-0.24171 0.11212,-0.40383 0.32964,-0.47665 0.42382,-0.14189 0.78993,0.22382 0.64813,0.64742 -0.091,0.27169 -0.37977,0.40386 -0.66336,0.30356 z"
       id="path432" />
    <path
       style="fill:#000000;stroke-width:0.264583"
       d="m 28.412901,232.7351 c -0.204047,-0.0722 -0.31441,-0.23866 -0.31441,-0.47433 0,-0.24171 0.112118,-0.40383 0.329637,-0.47665 0.423823,-0.14189 0.789935,0.22382 0.648139,0.64742 -0.09095,0.27169 -0.379772,0.40386 -0.663366,0.30356 z"
       id="path431" />
    <path
       style="fill:#000000;stroke-width:0.264583"
       d="m 76.545902,236.20644 c -0.20405,-0.0722 -0.31441,-0.23867 -0.31441,-0.47434 0,-0.24171 0.11212,-0.40383 0.32964,-0.47665 0.42382,-0.14189 0.78993,0.22382 0.64813,0.64742 -0.0909,0.2717 -0.37977,0.40387 -0.66336,0.30357 z"
       id="path430" />
    <path
       style="fill:#000000;stroke-width:0.264583"
       d="m 26.380901,236.20644 c -0.204047,-0.0722 -0.31441,-0.23867 -0.31441,-0.47434 0,-0.24171 0.112118,-0.40383 0.329637,-0.47665 0.423823,-0.14189 0.789935,0.22382 0.648139,0.64742 -0.09095,0.2717 -0.379772,0.40387 -0.663366,0.30357 z"
       id="path429" />
    <path
       style="fill:#000000;stroke-width:0.264583"
       d="m 78.281572,239.76243 c -0.20405,-0.0721 -0.31441,-0.23866 -0.31441,-0.47432 0,-0.24172 0.11211,-0.40383 0.32963,-0.47667 0.42382,-0.14187 0.78994,0.22383 0.64814,0.64743 -0.0909,0.2717 -0.37977,0.40386 -0.66336,0.30356 z"
       id="path428" />
    <path
       style="fill:#000000;stroke-width:0.264583"
       d="m 24.645234,239.76243 c -0.204046,-0.0721 -0.314409,-0.23866 -0.314409,-0.47432 0,-0.24172 0.112117,-0.40383 0.329636,-0.47667 0.423823,-0.14187 0.789935,0.22383 0.648139,0.64743 -0.09095,0.2717 -0.379772,0.40386 -0.663366,0.30356 z"
       id="path427" />
    <path
       style="fill:#000000;stroke-width:0.264583"
       d="m 79.805572,243.44545 c -0.20405,-0.0721 -0.31441,-0.23865 -0.31441,-0.47431 0,-0.24173 0.11211,-0.40384 0.32963,-0.47665 0.42382,-0.1419 0.78994,0.22381 0.64814,0.64741 -0.0909,0.2717 -0.37977,0.40386 -0.66336,0.30355 z"
       id="path423" />
    <path
       style="fill:#000000;stroke-width:0.264583"
       d="m 23.12124,243.44545 c -0.20405,-0.0721 -0.31441,-0.23865 -0.31441,-0.47431 0,-0.24173 0.112117,-0.40384 0.329634,-0.47665 0.42382,-0.1419 0.789932,0.22381 0.648136,0.64741 -0.09095,0.2717 -0.379772,0.40386 -0.66336,0.30355 z"
       id="path422" />
    <path
       style="fill:#000000;stroke-width:0.264583"
       d="m 81.033232,247.21312 c -0.20404,-0.0722 -0.31441,-0.23865 -0.31441,-0.47432 0,-0.24172 0.11212,-0.40383 0.32964,-0.47664 0.42382,-0.1419 0.78993,0.22381 0.64814,0.6474 -0.0909,0.27171 -0.37977,0.40386 -0.66337,0.30356 z"
       id="path417" />
    <path
       style="fill:#000000;stroke-width:0.264583"
       d="m 21.893573,247.21312 c -0.204049,-0.0722 -0.31441,-0.23865 -0.31441,-0.47432 0,-0.24172 0.112118,-0.40383 0.329634,-0.47664 0.423823,-0.1419 0.789938,0.22381 0.648139,0.6474 -0.09095,0.27171 -0.379772,0.40386 -0.663363,0.30356 z"
       id="path416" />
    <path
       style="fill:#000000;stroke-width:0.264583"
       d="m 82.006902,251.02312 c -0.20405,-0.0722 -0.31441,-0.23865 -0.31441,-0.47432 0,-0.24172 0.11212,-0.40383 0.32964,-0.47664 0.42382,-0.1419 0.78993,0.22381 0.64813,0.6474 -0.091,0.27171 -0.37977,0.40386 -0.66336,0.30356 z"
       id="path410" />
    <path
       style="fill:#000000;stroke-width:0.264583"
       d="m 20.919906,251.02312 c -0.204049,-0.0722 -0.314409,-0.23865 -0.314409,-0.47432 0,-0.24172 0.112117,-0.40383 0.329634,-0.47664 0.423822,-0.1419 0.789937,0.22381 0.648139,0.6474 -0.09095,0.27171 -0.379773,0.40386 -0.663364,0.30356 z"
       id="path409" />
    <path
       style="fill:#000000;stroke-width:0.264583"
       d="m 82.768902,254.91787 c -0.20405,-0.0722 -0.31441,-0.23868 -0.31441,-0.47435 0,-0.24169 0.11212,-0.40383 0.32964,-0.47664 0.42382,-0.1419 0.78993,0.22381 0.64813,0.6474 -0.091,0.27171 -0.37977,0.40389 -0.66336,0.30359 z"
       id="path388" />
    <path
       style="fill:#000000;stroke-width:0.264583"
       d="m 20.157906,254.91787 c -0.204049,-0.0722 -0.314409,-0.23868 -0.314409,-0.47435 0,-0.24169 0.112117,-0.40383 0.329634,-0.47664 0.423822,-0.1419 0.789937,0.22381 0.648139,0.6474 -0.09095,0.27171 -0.379773,0.40389 -0.663364,0.30359 z"
       id="path387" />
    <path
       style="fill:#000000;stroke-width:0.264583"
       d="m 83.234572,258.85487 c -0.20405,-0.0722 -0.31441,-0.23868 -0.31441,-0.47435 0,-0.24169 0.11211,-0.40383 0.32963,-0.47664 0.42382,-0.1419 0.78994,0.22381 0.64814,0.6474 -0.0909,0.27171 -0.37977,0.40389 -0.66336,0.30359 z"
       id="path381" />
    <path
       style="fill:#000000;stroke-width:0.264583"
       d="m 19.69224,258.85487 c -0.20405,-0.0722 -0.31441,-0.23868 -0.31441,-0.47435 0,-0.24169 0.112117,-0.40383 0.329634,-0.47664 0.423823,-0.1419 0.789937,0.22381 0.648139,0.6474 -0.09095,0.27171 -0.379772,0.40389 -0.663363,0.30359 z"
       id="path380" />
    <path
       style="fill:#000000;stroke-width:0.264583"
       d="m 83.403902,262.83412 c -0.20405,-0.0721 -0.31441,-0.23865 -0.31441,-0.47432 0,-0.24172 0.11212,-0.40383 0.32964,-0.47664 0.42382,-0.1419 0.78993,0.22381 0.64813,0.6474 -0.0909,0.27171 -0.37977,0.40386 -0.66336,0.30356 z"
       id="path377" />
    <path
       style="fill:#000000;stroke-width:0.264583"
       d="m 19.522906,262.83412 c -0.204049,-0.0721 -0.314409,-0.23865 -0.314409,-0.47432 0,-0.24172 0.112117,-0.40383 0.329634,-0.47664 0.423822,-0.1419 0.789937,0.22381 0.648139,0.6474 -0.09095,0.27171 -0.379773,0.40386 -0.663364,0.30356 z"
       id="path376" />
    <path
       style="fill:#000000;stroke-width:0.264583"
       d="m 83.361572,266.77112 c -0.20405,-0.0721 -0.31441,-0.23865 -0.31441,-0.47432 0,-0.24172 0.11211,-0.40383 0.32963,-0.47664 0.42382,-0.1419 0.78994,0.22381 0.64814,0.6474 -0.091,0.27171 -0.37977,0.40386 -0.66336,0.30356 z"
       id="path375" />
    <path
       style="fill:#000000;stroke-width:0.264583"
       d="m 19.56524,266.77112 c -0.20405,-0.0721 -0.31441,-0.23865 -0.31441,-0.47432 0,-0.24172 0.112117,-0.40383 0.329634,-0.47664 0.423823,-0.1419 0.789937,0.22381 0.648139,0.6474 -0.09095,0.27171 -0.379772,0.40386 -0.663363,0.30356 z"
       id="path374" />
    <path
       style="fill:#000000;stroke-width:0.264583"
       d="m 79.932572,268.80312 c -0.20405,-0.0721 -0.31441,-0.23865 -0.31441,-0.47432 0,-0.24172 0.11211,-0.40383 0.32963,-0.47664 0.42382,-0.1419 0.78994,0.22381 0.64814,0.6474 -0.091,0.27171 -0.37977,0.40386 -0.66336,0.30356 z"
       id="path373" />
    <path
       style="fill:#000000;stroke-width:0.264583"
       d="m 22.951906,268.80312 c -0.204049,-0.0721 -0.314409,-0.23865 -0.314409,-0.47432 0,-0.24172 0.112117,-0.40383 0.329634,-0.47664 0.42382,-0.1419 0.789932,0.22381 0.648136,0.6474 -0.09095,0.27171 -0.379772,0.40386 -0.663361,0.30356 z"
       id="path372" />
    <path
       style="fill:#000000;stroke-width:0.264583"
       d="m 76.418902,270.62345 c -0.20405,-0.0721 -0.31441,-0.23865 -0.31441,-0.47431 0,-0.24173 0.11212,-0.40384 0.32964,-0.47665 0.42382,-0.1419 0.78993,0.22381 0.64813,0.64741 -0.0909,0.2717 -0.37977,0.40386 -0.66336,0.30355 z"
       id="path371" />
    <path
       style="fill:#000000;stroke-width:0.264583"
       d="m 26.507901,270.62345 c -0.204047,-0.0721 -0.31441,-0.23865 -0.31441,-0.47431 0,-0.24173 0.112118,-0.40384 0.329637,-0.47665 0.423823,-0.1419 0.789935,0.22381 0.648139,0.64741 -0.09095,0.2717 -0.379772,0.40386 -0.663366,0.30355 z"
       id="path370" />
    <path
       style="fill:#000000;stroke-width:0.264583"
       d="m 72.778232,272.18979 c -0.20404,-0.0721 -0.31441,-0.23866 -0.31441,-0.47432 0,-0.24172 0.11212,-0.40383 0.32964,-0.47665 0.42382,-0.14189 0.78993,0.22381 0.64814,0.64741 -0.0909,0.2717 -0.37977,0.40386 -0.66337,0.30356 z"
       id="path369" />
    <path
       style="fill:#000000;stroke-width:0.264583"
       d="m 30.148568,272.18979 c -0.204047,-0.0721 -0.31441,-0.23866 -0.31441,-0.47432 0,-0.24172 0.112117,-0.40383 0.329636,-0.47665 0.423823,-0.14189 0.789935,0.22381 0.64814,0.64741 -0.09095,0.2717 -0.379773,0.40386 -0.663366,0.30356 z"
       id="path368" />
    <path
       style="fill:#000000;stroke-width:0.264583"
       d="m 69.052902,273.50212 c -0.20405,-0.0721 -0.31441,-0.23865 -0.31441,-0.47432 0,-0.24172 0.11212,-0.40383 0.32964,-0.47664 0.42382,-0.1419 0.78993,0.22381 0.64813,0.6474 -0.091,0.27171 -0.37977,0.40386 -0.66336,0.30356 z"
       id="path367" />
    <path
       style="fill:#000000;stroke-width:0.264583"
       d="m 33.873901,273.50212 c -0.204047,-0.0721 -0.31441,-0.23865 -0.31441,-0.47432 0,-0.24172 0.112118,-0.40383 0.329637,-0.47664 0.423823,-0.1419 0.789934,0.22381 0.648139,0.6474 -0.09095,0.27171 -0.379772,0.40386 -0.663366,0.30356 z"
       id="path366" />
    <path
       style="fill:#000000;stroke-width:0.264583"
       d="m 65.242902,274.56045 c -0.20405,-0.0722 -0.31441,-0.23865 -0.31441,-0.47431 0,-0.24173 0.11212,-0.40384 0.32964,-0.47665 0.42382,-0.1419 0.78993,0.22381 0.64813,0.64741 -0.091,0.2717 -0.37977,0.40386 -0.66336,0.30355 z"
       id="path365" />
    <path
       style="fill:#000000;stroke-width:0.264583"
       d="m 37.683901,274.56045 c -0.204047,-0.0722 -0.31441,-0.23865 -0.31441,-0.47431 0,-0.24173 0.112117,-0.40384 0.329637,-0.47665 0.423823,-0.1419 0.789934,0.22381 0.648139,0.64741 -0.09095,0.2717 -0.379772,0.40386 -0.663366,0.30355 z"
       id="path364" />
    <path
       style="fill:#000000;stroke-width:0.264583"
       d="m 61.348232,275.36479 c -0.20404,-0.0721 -0.31441,-0.23866 -0.31441,-0.47432 0,-0.24172 0.11212,-0.40383 0.32964,-0.47665 0.42382,-0.14189 0.78993,0.22381 0.64814,0.64741 -0.091,0.2717 -0.37977,0.40386 -0.66337,0.30356 z"
       id="path363" />
    <path
       style="fill:#000000;stroke-width:0.264583"
       d="m 41.578568,275.36479 c -0.204047,-0.0721 -0.31441,-0.23866 -0.31441,-0.47432 0,-0.24172 0.112117,-0.40383 0.329636,-0.47665 0.423823,-0.14189 0.789935,0.22381 0.64814,0.64741 -0.09095,0.2717 -0.379773,0.40386 -0.663366,0.30356 z"
       id="path362" />
    <path
       style="fill:#000000;stroke-width:0.264583"
       d="m 57.453572,275.91512 c -0.20405,-0.0722 -0.31441,-0.23865 -0.31441,-0.47432 0,-0.24172 0.11211,-0.40383 0.32963,-0.47664 0.42382,-0.1419 0.78994,0.22381 0.64814,0.6474 -0.0909,0.27171 -0.37977,0.40386 -0.66336,0.30356 z"
       id="path361" />
    <path
       style="fill:#000000;stroke-width:0.264583"
       d="m 45.473234,275.91512 c -0.204046,-0.0722 -0.314409,-0.23865 -0.314409,-0.47432 0,-0.24172 0.112117,-0.40383 0.329636,-0.47664 0.423823,-0.1419 0.789935,0.22381 0.648139,0.6474 -0.09095,0.27171 -0.379772,0.40386 -0.663366,0.30356 z"
       id="path360" />
    <path
       style="fill:#000000;stroke-width:0.264583"
       d="m 53.474232,276.16912 c -0.20404,-0.0721 -0.31441,-0.23865 -0.31441,-0.47432 0,-0.24172 0.11212,-0.40383 0.32964,-0.47664 0.42382,-0.1419 0.78993,0.22381 0.64814,0.6474 -0.091,0.27171 -0.37977,0.40386 -0.66337,0.30356 z"
       id="path359" />
    <path
       style="fill:#000000;stroke-width:0.264583"
       d="m 49.452572,276.16912 c -0.20405,-0.0721 -0.31441,-0.23865 -0.31441,-0.47432 0,-0.24172 0.11211,-0.40383 0.32963,-0.47664 0.42383,-0.1419 0.78994,0.22381 0.64814,0.6474 -0.091,0.27171 -0.37977,0.40386 -0.66336,0.30356 z"
       id="path358" />
    <path
       style="fill:#000000;stroke-width:0.264583"
       d="m 48.276482,286.66423 c -12.321263,-0.67442 -24.112353,-4.51657 -34.417003,-11.21482 -1.686832,-1.09648 -4.322117,-2.98465 -4.417454,-3.16507 -0.108162,-0.20471 -0.422495,-3.45975 -0.538639,-5.57782 -0.09528,-1.73765 -0.09542,-5.3368 -2.64e-4,-7.06966 0.325614,-5.93032 1.289444,-11.42413 2.967045,-16.91217 3.092008,-10.11508 8.557027,-19.58553 15.707571,-27.22002 0.846686,-0.90398 2.841885,-2.89321 3.744254,-3.73305 2.643571,-2.46036 6.082443,-5.13373 9.249833,-7.19078 3.30703,-2.14774 7.208837,-4.23377 10.609517,-5.67218 l 0.80905,-0.34221 0.72538,0.30545 c 2.62417,1.10501 5.84955,2.75233 8.51472,4.34879 19.11931,11.45257 31.65965,31.45746 33.65359,53.68567 0.20686,2.30608 0.25162,3.42315 0.25105,6.26533 -5.3e-4,2.84125 -0.0426,3.88951 -0.24974,6.223 -0.11747,1.32358 -0.29508,2.80429 -0.34751,2.89708 -0.0992,0.17561 -2.78743,2.09661 -4.41489,3.15495 -10.42387,6.77849 -22.3213,10.61696 -34.84033,11.24053 -1.78771,0.0891 -5.16118,0.078 -7.00617,-0.023 z"
       id="path306" />
  </g>
</svg>
