<?xml version="1.0" encoding="UTF-8" standalone="no"?>
<!-- Created with Inkscape (http://www.inkscape.org/) -->

<svg
   width="210mm"
   height="297mm"
   viewBox="0 0 210 297"
   version="1.1"
   id="svg1"
   xml:space="preserve"
   inkscape:version="1.3.2 (091e20e, 2023-11-25, custom)"
   sodipodi:docname="panel in order.svg"
   xmlns:inkscape="http://www.inkscape.org/namespaces/inkscape"
   xmlns:sodipodi="http://sodipodi.sourceforge.net/DTD/sodipodi-0.dtd"
   xmlns="http://www.w3.org/2000/svg"
   xmlns:svg="http://www.w3.org/2000/svg"><sodipodi:namedview
     id="namedview1"
     pagecolor="#ffffff"
     bordercolor="#000000"
     borderopacity="0.25"
     inkscape:showpageshadow="2"
     inkscape:pageopacity="0.0"
     inkscape:pagecheckerboard="0"
     inkscape:deskcolor="#d1d1d1"
     inkscape:document-units="mm"
     inkscape:zoom="2.9255612"
     inkscape:cx="327.11673"
     inkscape:cy="675.59687"
     inkscape:window-width="1920"
     inkscape:window-height="1017"
     inkscape:window-x="-8"
     inkscape:window-y="-8"
     inkscape:window-maximized="1"
     inkscape:current-layer="g1"><inkscape:page
       x="0"
       y="0"
       width="210"
       height="297"
       id="page1"
       margin="0"
       bleed="0" /><inkscape:page
       x="220"
       y="0"
       width="210.06"
       height="279.40002"
       id="page2"
       margin="0"
       bleed="0" /></sodipodi:namedview><defs
     id="defs1"><clipPath
       clipPathUnits="userSpaceOnUse"
       id="clipPath2"><path
         d="M 0,0.028 H 595.417 V 791.999 H 0 Z"
         transform="matrix(1,0,0,-1,-390.70001,762.80002)"
         clip-rule="evenodd"
         id="path2" /></clipPath><clipPath
       clipPathUnits="userSpaceOnUse"
       id="clipPath3"><path
         d="M 0,0.028 H 595.417 V 791.999 H 0 Z"
         transform="matrix(1,0,0,-1,-554.30002,21.000001)"
         clip-rule="evenodd"
         id="path3" /></clipPath><clipPath
       clipPathUnits="userSpaceOnUse"
       id="clipPath4"><path
         d="M 0,0.028 H 595.417 V 791.999 H 0 Z"
         transform="matrix(1,0,0,-1,-560.50201,21.000001)"
         clip-rule="evenodd"
         id="path4" /></clipPath><clipPath
       clipPathUnits="userSpaceOnUse"
       id="clipPath5"><path
         d="m 27.399,57.5 h 539.899 v 684 H 27.399 Z"
         transform="matrix(0.00185185,0,0,-0.00146199,-0.05064815,1.0841374)"
         clip-rule="evenodd"
         id="path5" /></clipPath></defs><g
     inkscape:label="Layer 1"
     inkscape:groupmode="layer"
     id="layer1" /><g
     id="g1"
     inkscape:groupmode="layer"
     inkscape:label="11"
     transform="matrix(0.26458333,0,0,0.26458334,220.00001,0)"><path
       style="display:inline;fill:#000000"
       d="m -597.04331,776.26225 c 24.87451,-0.90514 49.15506,-4.97955 73.58285,-12.34761 l 5.26286,-1.58741 1.90013,-6.2065 c 7.26877,-23.74242 12.21416,-54.54211 12.21416,-76.06929 v -17.05729 c 0,-21.0508 -5.32613,-53.94413 -12.46739,-76.99658 l -1.60984,-5.19666 -6.98029,-2.0399 c -25.47233,-7.44397 -56.07099,-12.20678 -78.42241,-12.20678 -5.51869,-0.21842 -10.99637,0.0115 -16.52007,0.24678 -16.44836,0.70077 -29.14029,2.18386 -44.96,5.25372 -13.10172,2.54243 -33.01112,7.82857 -34.35437,9.12143 -0.62596,0.60248 -5.30079,17.11233 -7.18589,25.37807 -3.73699,16.38587 -6.30865,35.9984 -7.15407,54.56 -0.62516,6.94596 -0.3163,13.85538 0,20.8 1.11487,24.47742 4.69105,47.16703 10.91628,69.26005 3.28809,11.66925 2.83851,10.95138 7.82902,12.50112 24.11389,7.48825 54.64533,12.50257 77.46903,12.72308 6.82748,0.15953 13.65346,-0.0217 20.48,-0.13623 z"
       id="path6" /><path
       id="path1"
       d="m 2.8009766,0.11738281 c -0.7265625,0 -1.2949219,-0.23730469 -1.6992188,-0.71484375 C 0.69453125,-1.0808594 0.49238281,-1.7517578 0.49238281,-2.6130859 c 0,-0.975586 0.15527344,-1.8691407 0.46875,-2.6835938 0.31933599,-0.8203125 0.76757809,-1.4648437 1.34765629,-1.9335937 0.5859375,-0.4746094 1.2304687,-0.7148438 1.9335937,-0.7148438 0.5302735,0 1.0957031,0.1025391 1.6992188,0.3046875 l -0.234375,1.359375 H 5.3205078 l -0.070312,-0.8203125 c -0.3457031,-0.234375 -0.6972656,-0.3515625 -1.0546875,-0.3515625 -0.609375,0 -1.1367187,0.2929688 -1.5820312,0.8789063 -0.4394532,0.5859375 -0.75,1.4003906 -0.9375,2.4375 0.2958984,-0.178711 0.609375,-0.319336 0.9375,-0.421875 0.3339843,-0.099609 0.6445312,-0.1523438 0.9257812,-0.1523438 0.6386719,0 1.1367188,0.1611328 1.4882813,0.4804688 0.3515625,0.3134765 0.5273437,0.7470703 0.5273437,1.3007812 0,0.5947266 -0.1113281,1.1220703 -0.328125,1.5820313 -0.2197265,0.46289059 -0.5390625,0.82031246 -0.9609375,1.07812496 -0.4160156,0.2578125 -0.9023437,0.38671875 -1.4648442,0.38671875 z M 1.5236328,-2.4138672 c 0,0.65625 0.1083985,1.1660156 0.328125,1.52343751 0.2167969,0.36035156 0.5390625,0.5390625 0.9609375,0.5390625 0.5214844,0 0.928711,-0.22265625 1.21875,-0.66796871 0.2871094,-0.4511719 0.4335938,-1.069336 0.4335938,-1.8515625 0,-0.421875 -0.09375,-0.7382813 -0.28125,-0.9492188 -0.1875,-0.2167969 -0.4863282,-0.328125 -0.890625,-0.328125 -0.4453125,0 -1.0048828,0.1230469 -1.6757813,0.3632813 -0.064453,0.4453125 -0.09375,0.9023437 -0.09375,1.3710937 z m 4.921875,0.035156 V -3.281055 h 3.1171875 v 0.9023438 z M 13.582227,-3.60918 c 1.514648,0 2.273437,-0.6972656 2.273437,-2.0976562 0,-0.553711 -0.140625,-0.9638672 -0.421875,-1.2304688 -0.28125,-0.2636719 -0.708984,-0.3984375 -1.277344,-0.3984375 h -0.867187 l -0.65625,3.7265625 z m -1.042969,0.5273438 -0.46875,2.61328121 1.289062,0.15234375 -0.05859,0.3164062525 H 9.9259766 l 0.058594,-0.3164062525 0.9609374,-0.15234375 1.21875,-6.92578121 -0.984375,-0.1523438 0.05859,-0.3164062 h 3.152343 c 0.84375,0 1.491211,0.1757812 1.945313,0.5273437 0.459961,0.3515625 0.691406,0.8730469 0.691406,1.5585938 0,0.8759765 -0.290039,1.5439453 -0.867187,2.0039062 -0.571289,0.4628906 -1.388672,0.6914063 -2.449219,0.6914063 z m 9.380859,2.67187496 0.65625,0.140625 -0.04687,0.2695312525 H 20.86543 L 21.029492,-0.91386719 c -0.65625,0.69726563 -1.259765,1.04296875 -1.804687,1.04296875 -0.477539,0 -0.861328,-0.17578125 -1.148438,-0.52734375 -0.28125,-0.3515625 -0.421875,-0.83203121 -0.421875,-1.44140621 0,-0.6796875 0.146485,-1.3154297 0.445313,-1.9101563 0.295898,-0.6005859 0.694336,-1.0664062 1.195312,-1.3945312 0.498047,-0.3339844 1.042969,-0.5039063 1.628906,-0.5039063 0.47461,0 0.919922,0.082031 1.335938,0.2460938 l 0.269531,-0.1992188 h 0.316406 z M 21.744336,-4.9099609 c -0.149414,-0.099609 -0.290039,-0.1699219 -0.421875,-0.2109375 -0.134766,-0.046875 -0.298828,-0.070312 -0.492188,-0.070312 -0.392578,0 -0.75,0.149414 -1.078125,0.4453125 -0.328125,0.2988281 -0.585937,0.6972656 -0.773437,1.1953125 -0.1875,0.5009765 -0.28125,1.0195312 -0.28125,1.5585937 0,0.421875 0.08496,0.7587891 0.257812,1.00781251 0.169922,0.25195313 0.404297,0.375 0.703125,0.375 0.445313,0 0.928711,-0.27246094 1.453125,-0.82031251 z m 5.976562,0.5273437 c 0,-0.1787109 -0.04687,-0.3222656 -0.140625,-0.4335937 -0.09375,-0.1083985 -0.243164,-0.1640625 -0.445312,-0.1640625 -0.290039,0 -0.606445,0.1259765 -0.949219,0.375 -0.345703,0.243164 -0.626953,0.5478515 -0.84375,0.9140625 L 24.697461,1.953125e-4 H 23.724805 L 24.61543,-5.1091797 l -0.691407,-0.140625 0.04687,-0.2695312 H 25.5998 l -0.152344,1.125 c 0.328125,-0.421875 0.667969,-0.7382813 1.019531,-0.9492188 0.351563,-0.2109375 0.694336,-0.3164062 1.03125,-0.3164062 0.398438,0 0.694336,0.1113281 0.890625,0.328125 0.202149,0.2109375 0.304688,0.515625 0.304688,0.9140625 0,0.055664 -0.0088,0.140625 -0.02344,0.2578125 -0.01758,0.1113281 -0.231445,1.359375 -0.644531,3.74999996 l 0.773437,0.140625 -0.04687,0.2695312525 H 26.982617 L 27.580273,-3.4099609 c 0.09375,-0.4980469 0.140625,-0.8232422 0.140625,-0.9726563 z m 6.632813,-0.070312 c 0,0.5332031 -0.328125,0.984375 -0.984375,1.359375 -0.65625,0.375 -1.541016,0.5976563 -2.648438,0.6679688 l -0.02344,0.4335937 c 0,0.4921875 0.105469,0.8671875 0.316406,1.12500001 0.210938,0.25195313 0.518555,0.375 0.925781,0.375 0.351563,0 0.673829,-0.0585938 0.972657,-0.17578125 0.295898,-0.12304687 0.574218,-0.26074219 0.832031,-0.41015626 l 0.175781,0.24609376 c -0.360351,0.3046875 -0.74414,0.5390625 -1.148437,0.703125 -0.398438,0.1640625 -0.779297,0.24609375 -1.136719,0.24609375 -0.632813,0 -1.12207,-0.17578125 -1.464844,-0.52734375 -0.336914,-0.35742187 -0.503906,-0.86718746 -0.503906,-1.52343746 0,-0.65625 0.134766,-1.265625 0.410156,-1.828125 0.272461,-0.5625 0.650391,-1.0195313 1.136719,-1.3710938 0.492187,-0.3515625 1.007812,-0.5273437 1.546875,-0.5273437 0.474609,0 0.858398,0.1142578 1.148437,0.3398437 0.295899,0.2197266 0.445313,0.5097656 0.445313,0.8671875 z m -3.585938,1.6640625 c 0.773438,-0.061523 1.388672,-0.2460937 1.851563,-0.5507812 0.46875,-0.3046875 0.703125,-0.6738282 0.703125,-1.1132813 0,-0.2167969 -0.05859,-0.3984375 -0.175781,-0.5390625 -0.117188,-0.140625 -0.290039,-0.2109375 -0.515625,-0.2109375 -0.275391,0 -0.539063,0.1142578 -0.796875,0.3398438 -0.257813,0.2197265 -0.480469,0.515625 -0.667969,0.890625 -0.1875,0.375 -0.322266,0.7705078 -0.398438,1.1835937 z m 5.516602,2.37890626 0.914063,0.140625 -0.04687,0.2695312525 h -1.910157 l 1.382813,-7.9218750125 -0.75,-0.140625 0.04687,-0.2695312 h 1.746094 z m 5.141602,-1.76953126 h 0.386718 v 1.125 c 0.131836,0.19628907 0.351563,0.36035157 0.65625,0.49218751 0.310547,0.13476563 0.644532,0.19921875 0.996094,0.19921875 0.638672,0 1.130859,-0.14648437 1.476563,-0.4453125 0.342773,-0.30468746 0.515625,-0.72949216 0.515625,-1.27734376 0,-0.2109375 -0.04687,-0.3925781 -0.140625,-0.5507812 -0.09375,-0.1552735 -0.219727,-0.2958985 -0.375,-0.421875 -0.158204,-0.1230469 -0.333985,-0.2373047 -0.527344,-0.3398438 -0.196289,-0.1083984 -0.398438,-0.2138672 -0.609375,-0.3164062 -0.205078,-0.1083985 -0.407227,-0.225586 -0.609375,-0.3515625 -0.196289,-0.1230469 -0.37207,-0.2636719 -0.527344,-0.421875 -0.158203,-0.1640625 -0.28125,-0.3515625 -0.375,-0.5625 -0.09375,-0.2109375 -0.140625,-0.459961 -0.140625,-0.75 0,-0.694336 0.234375,-1.2246094 0.703125,-1.59375 0.474609,-0.366211 1.154297,-0.5507813 2.039063,-0.5507813 0.670898,0 1.303711,0.076172 1.898437,0.2226563 l -0.292969,1.6289062 h -0.375 l -0.03516,-0.9960937 c -0.125976,-0.099609 -0.301758,-0.1875 -0.527344,-0.2578125 -0.219726,-0.070312 -0.474609,-0.1054688 -0.761718,-0.1054688 -0.515625,0 -0.914063,0.1289063 -1.195313,0.3867188 -0.28125,0.2519531 -0.421875,0.6035156 -0.421875,1.0546875 0,0.2519531 0.08496,0.477539 0.257813,0.6796875 0.178711,0.2050781 0.439453,0.3925781 0.785156,0.5625 0.530273,0.28125 0.914062,0.4980468 1.148437,0.6445312 0.234375,0.140625 0.427735,0.2929688 0.585938,0.4570313 0.164062,0.1640625 0.292969,0.3515625 0.386719,0.5625 0.09375,0.2109375 0.140625,0.4541015 0.140625,0.7265625 0,0.805664 -0.263672,1.42382809 -0.785157,1.85156246 -0.524414,0.43066406 -1.283203,0.64453125 -2.273437,0.64453125 -0.492188,0 -0.9375,-0.05273437 -1.335938,-0.15234375 -0.392578,-0.09960937 -0.714843,-0.234375 -0.972656,-0.3984375 z m 6.925781,2.16796876 -0.07031,0.52734375 -0.28125,1.62890629 0.9375,0.140625 -0.04687,0.2695312 h -2.613281 l 0.04687,-0.2695312 0.714844,-0.140625 1.277344,-7.2421875 -0.597657,-0.1523438 0.04687,-0.2578125 h 1.546875 l -0.105468,0.890625 c 0.679687,-0.6943359 1.291992,-1.0429687 1.839843,-1.0429687 0.47461,0 0.855469,0.1757812 1.136719,0.5273437 0.287109,0.3457031 0.433594,0.8203125 0.433594,1.4296875 0,0.6884766 -0.149414,1.3300781 -0.445313,1.921875 -0.290039,0.5947266 -0.688476,1.06054689 -1.195312,1.39453126 -0.500977,0.33691406 -1.042969,0.50390625 -1.628906,0.50390625 -0.181641,0 -0.369141,-0.0117188 -0.5625,-0.03515625 -0.196289,-0.0234375 -0.339844,-0.05566406 -0.433594,-0.09375 z m 0.140625,-0.62109375 c 0.240234,0.1875 0.568359,0.28125 0.984375,0.28125 0.380859,0 0.729492,-0.140625 1.042969,-0.421875 0.319336,-0.28710941 0.574218,-0.68554691 0.761718,-1.19531251 0.19336,-0.515625 0.292969,-1.0429687 0.292969,-1.5820312 0,-0.4277344 -0.09082,-0.7646485 -0.269531,-1.0078125 -0.172852,-0.2402344 -0.404297,-0.3632813 -0.691406,-0.3632813 -0.210938,0 -0.457032,0.079102 -0.738282,0.234375 -0.28125,0.1494141 -0.533203,0.3398438 -0.75,0.5742188 z m 6.316406,-7.28906251 -0.691406,-0.140625 0.04687,-0.2695312 h 1.6875 l -0.621094,3.4921875 -0.09375,0.4453125 c 0.310547,-0.4042969 0.644531,-0.7177735 0.996094,-0.9375 0.357422,-0.2167969 0.708984,-0.328125 1.054687,-0.328125 0.398438,0 0.694336,0.1113281 0.890625,0.328125 0.202149,0.2109375 0.304688,0.515625 0.304688,0.9140625 0,0.055664 -0.0088,0.140625 -0.02344,0.2578125 -0.01758,0.1113281 -0.231445,1.359375 -0.644531,3.74999996 l 0.773438,0.140625 L 58.4416,1.958125e-4 H 56.67207 L 57.269727,-3.4099609 c 0.09375,-0.4980469 0.140625,-0.8232422 0.140625,-0.9726563 0,-0.1787109 -0.04687,-0.3222656 -0.140625,-0.4335937 -0.09375,-0.1083985 -0.243164,-0.1640625 -0.445313,-0.1640625 -0.298828,0 -0.618164,0.1259765 -0.960937,0.375 -0.336914,0.243164 -0.615235,0.5390625 -0.832032,0.890625 L 54.386914,1.953125e-4 h -0.972656 z m 9.234375,3.46875 c 0,0.5332031 -0.328125,0.984375 -0.984375,1.359375 -0.65625,0.375 -1.541016,0.5976563 -2.648437,0.6679688 l -0.02344,0.4335937 c 0,0.4921875 0.105469,0.8671875 0.316406,1.12500001 0.210938,0.25195313 0.518555,0.375 0.925782,0.375 0.351562,0 0.673828,-0.0585938 0.972656,-0.17578125 0.295898,-0.12304687 0.574219,-0.26074219 0.832031,-0.41015626 l 0.175781,0.24609376 c -0.360351,0.3046875 -0.74414,0.5390625 -1.148437,0.703125 -0.398438,0.1640625 -0.779297,0.24609375 -1.136719,0.24609375 -0.632812,0 -1.12207,-0.17578125 -1.464844,-0.52734375 -0.336914,-0.35742187 -0.503906,-0.86718746 -0.503906,-1.52343746 0,-0.65625 0.134766,-1.265625 0.410156,-1.828125 0.272461,-0.5625 0.650391,-1.0195313 1.136719,-1.3710938 0.492188,-0.3515625 1.007813,-0.5273437 1.546875,-0.5273437 0.474609,0 0.858399,0.1142578 1.148438,0.3398437 0.295898,0.2197266 0.445312,0.5097656 0.445312,0.8671875 z m -3.585937,1.6640625 c 0.773437,-0.061523 1.388671,-0.2460937 1.851562,-0.5507812 0.46875,-0.3046875 0.703125,-0.6738282 0.703125,-1.1132813 0,-0.2167969 -0.05859,-0.3984375 -0.175781,-0.5390625 -0.117188,-0.140625 -0.290039,-0.2109375 -0.515625,-0.2109375 -0.275391,0 -0.539063,0.1142578 -0.796875,0.3398438 -0.257813,0.2197265 -0.480469,0.515625 -0.667969,0.890625 -0.1875,0.375 -0.322266,0.7705078 -0.398437,1.1835937 z m 8.068359,-2.8710937 c 0.193359,0 0.351562,0.017578 0.46875,0.046875 l -0.257813,1.4414062 h -0.257812 l -0.222656,-0.7382812 c -0.313477,0 -0.638672,0.1230468 -0.972657,0.3632812 -0.328125,0.234375 -0.632812,0.5478516 -0.914062,0.9375 L 65.748242,1.953125e-4 H 64.775586 L 65.666211,-5.0974609 64.974805,-5.2498047 65.02168,-5.5076172 h 1.628906 l -0.1875,1.2421875 c 0.295898,-0.4453125 0.624023,-0.7880859 0.984375,-1.03125 0.357422,-0.2402344 0.717773,-0.3632812 1.078125,-0.3632807 z m 2.162109,5.24999996 0.925782,0.140625 -0.04687,0.2695312525 h -1.92188 L 70.54707,-5.0974609 l -0.761718,-0.1523438 0.04687,-0.2578125 h 1.757812 z M 71.95332,-7.3123047 c 0,0.1728516 -0.06445,0.3222656 -0.1875,0.4453125 -0.125976,0.1259766 -0.27832,0.1875 -0.457031,0.1875 -0.172851,0 -0.322266,-0.061523 -0.445312,-0.1875 -0.125977,-0.1230469 -0.1875,-0.2724609 -0.1875,-0.4453125 0,-0.1699219 0.06152,-0.3193359 0.1875,-0.4453125 0.123046,-0.1230469 0.272461,-0.1875 0.445312,-0.1875 0.178711,0 0.331055,0.064453 0.457031,0.1875 0.123047,0.1259766 0.1875,0.2753906 0.1875,0.4453125 z m 4.857422,6.48046876 c -0.313476,0.29003906 -0.667969,0.52148438 -1.066406,0.69140625 -0.392578,0.16992188 -0.767578,0.2578125 -1.125,0.2578125 -0.626953,0 -1.110352,-0.17871094 -1.453125,-0.5390625 -0.345703,-0.36621094 -0.515625,-0.87011721 -0.515625,-1.51171871 0,-0.6796875 0.134766,-1.3007813 0.410156,-1.8632813 0.272461,-0.5625 0.65918,-1.0107422 1.160156,-1.3476562 0.506836,-0.3427735 1.03711,-0.515625 1.59375,-0.515625 0.28125,0 0.577149,0.032227 0.890625,0.09375 0.310547,0.055664 0.56836,0.1259765 0.773438,0.2109375 l -0.269531,1.5351562 h -0.316407 l -0.09375,-1.0195312 c -0.251953,-0.2402344 -0.580078,-0.3632813 -0.984375,-0.3632813 -0.375,0 -0.726562,0.140625 -1.054687,0.421875 -0.328125,0.2753906 -0.591797,0.6621094 -0.785156,1.1601563 -0.196289,0.4921875 -0.292969,1.0371093 -0.292969,1.6289062 0,1.00195314 0.401367,1.50000001 1.207031,1.50000001 0.5625,0 1.142578,-0.19335937 1.746094,-0.58593751 z m 5.399414,0.421875 0.65625,0.140625 -0.04687,0.2695312525 H 81.155469 L 81.319531,-0.91386719 c -0.65625,0.69726563 -1.259765,1.04296875 -1.804687,1.04296875 -0.477539,0 -0.861328,-0.17578125 -1.148438,-0.52734375 -0.28125,-0.3515625 -0.421875,-0.83203121 -0.421875,-1.44140621 0,-0.6796875 0.146485,-1.3154297 0.445313,-1.9101563 0.295898,-0.6005859 0.694336,-1.0664062 1.195312,-1.3945312 0.498047,-0.3339844 1.042969,-0.5039063 1.628907,-0.5039063 0.474609,0 0.919921,0.082031 1.335937,0.2460938 l 0.269531,-0.1992188 h 0.316407 z M 82.034375,-4.9099609 c -0.149414,-0.099609 -0.290039,-0.1699219 -0.421875,-0.2109375 -0.134766,-0.046875 -0.298828,-0.070312 -0.492187,-0.070312 -0.392579,0 -0.75,0.149414 -1.078125,0.4453125 -0.328125,0.2988281 -0.585938,0.6972656 -0.773438,1.1953125 -0.1875,0.5009765 -0.28125,1.0195312 -0.28125,1.5585937 0,0.421875 0.08496,0.7587891 0.257813,1.00781251 0.169921,0.25195313 0.404296,0.375 0.703125,0.375 0.445312,0 0.92871,-0.27246094 1.453125,-0.82031251 z m 3.234375,4.49999996 0.914063,0.140625 -0.04687,0.2695312525 h -1.910157 l 1.382813,-7.9218750125 -0.75,-0.140625 0.04687,-0.2695312 h 1.746094 z m 8.797852,0.52734375 c -1.078125,0 -1.921875,-0.28125 -2.53125,-0.84375 -0.603516,-0.56835941 -0.902344,-1.35058591 -0.902344,-2.34375001 0,-0.9667969 0.202148,-1.8222656 0.609375,-2.5664062 0.404297,-0.741211 0.978515,-1.3125 1.722656,-1.7109375 0.741211,-0.3984375 1.59375,-0.5976563 2.554688,-0.5976563 0.820312,0 1.675781,0.099609 2.566406,0.2929688 l -0.269531,1.7226562 h -0.375 v -1.0195312 c -0.243164,-0.1699219 -0.536133,-0.2988282 -0.878907,-0.3867188 -0.345703,-0.09375 -0.703125,-0.140625 -1.078125,-0.140625 -0.711914,0 -1.347656,0.1875 -1.910156,0.5625 -0.556641,0.375 -0.990234,0.9111328 -1.300781,1.6054688 -0.313477,0.6884765 -0.46875,1.4736328 -0.46875,2.3554687 0,0.84375 0.202148,1.4853516 0.609375,1.921875 0.413086,0.43945314 0.996094,0.65625001 1.746094,0.65625001 0.445312,0 0.878906,-0.0644531 1.300781,-0.19921875 0.427734,-0.13183594 0.776367,-0.29882812 1.042969,-0.50390626 l 0.421875,-1.1835937 h 0.386718 l -0.363281,1.85156246 c -0.445312,0.1640625 -0.931641,0.29296875 -1.453125,0.38671875 -0.515625,0.09375 -0.993164,0.140625 -1.429687,0.140625 z m 5.460937,-1.25390621 c 0,0.18164059 0.04687,0.32519527 0.140625,0.43359371 0.09375,0.11132813 0.240234,0.1640625 0.445316,0.1640625 0.2959,0 0.6123,-0.12011719 0.94922,-0.36328125 0.34277,-0.24902346 0.62402,-0.55078126 0.84375,-0.90234376 l 0.64453,-3.703125 h 0.97265 l -0.89062,5.09765626 0.6914,0.140625 -0.0469,0.2695312525 H 101.6486 L 101.80098,-1.1365234 c -0.32227,0.42187496 -0.65625,0.74414059 -1.00782,0.96093746 -0.35156,0.2109375 -0.70019,0.31640625 -1.042965,0.31640625 -0.398437,0 -0.700195,-0.10546875 -0.902343,-0.31640625 -0.196289,-0.21679687 -0.292969,-0.52734375 -0.292969,-0.92578126 0,-0.052734 0.01172,-0.1552734 0.03516,-0.3046875 0.02344,-0.1552734 0.234375,-1.3886719 0.632813,-3.703125 l -0.65625,-0.140625 0.04687,-0.2578125 h 1.652344 l -0.597657,3.3984375 c -0.09375,0.4921875 -0.140625,0.8173828 -0.140624,0.9726563 z m 6.222661,-6.7851563 -0.78516,-0.140625 0.0469,-0.2695312 h 1.75782 l -0.4336,2.5898437 c -0.0644,0.4453125 -0.13769,0.8203125 -0.22265,1.125 0.31054,-0.3193359 0.63281,-0.5742187 0.96093,-0.7617187 0.32813,-0.1875 0.63282,-0.28125 0.91407,-0.28125 0.4834,0 0.87011,0.1757812 1.16015,0.5273437 0.2959,0.3515625 0.44532,0.8291016 0.44532,1.4296875 0,0.6738281 -0.14649,1.3095703 -0.4336,1.9101563 -0.29004,0.5947265 -0.6914,1.06347652 -1.20703,1.40624996 -0.50977,0.33691406 -1.06641,0.50390625 -1.67578,0.50390625 -0.3457,0 -0.67969,-0.04394531 -1.00781,-0.12890625 -0.32813,-0.09375 -0.61817,-0.21386719 -0.86719,-0.36328125 z m -0.33985,7.28906251 c 0.22559,0.1875 0.54199,0.28125 0.94922,0.28125 0.39844,0 0.76465,-0.14355469 1.10156,-0.43359375 0.33399,-0.29589846 0.60059,-0.69433596 0.79688,-1.19531246 0.19336,-0.4980469 0.29297,-1.022461 0.29297,-1.5703125 0,-0.4365235 -0.0937,-0.7734375 -0.28125,-1.0078125 -0.18164,-0.2402344 -0.42188,-0.3632813 -0.72657,-0.3632813 -0.22851,0 -0.47753,0.079102 -0.75,0.234375 -0.2666,0.1494141 -0.52148,0.3398438 -0.76171,0.5742188 z m 9.60938,-3.82031251 c 0,0.5332031 -0.32813,0.984375 -0.98438,1.359375 -0.65625,0.375 -1.54101,0.5976563 -2.64844,0.6679688 l -0.0234,0.4335937 c 0,0.4921875 0.10547,0.8671875 0.3164,1.12500001 0.21094,0.25195313 0.51856,0.375 0.92578,0.375 0.35157,0 0.67383,-0.0585938 0.97266,-0.17578125 0.2959,-0.12304687 0.57422,-0.26074219 0.83203,-0.41015626 l 0.17578,0.24609376 c -0.36035,0.3046875 -0.74414,0.5390625 -1.14843,0.703125 -0.39844,0.1640625 -0.7793,0.24609375 -1.13672,0.24609375 -0.63282,0 -1.12207,-0.17578125 -1.46485,-0.52734375 -0.33691,-0.35742187 -0.5039,-0.86718746 -0.5039,-1.52343746 0,-0.65625 0.13476,-1.265625 0.41015,-1.828125 0.27246,-0.5625 0.65039,-1.0195313 1.13672,-1.3710938 0.49219,-0.3515625 1.00781,-0.5273437 1.54688,-0.5273437 0.47461,0 0.8584,0.1142578 1.14843,0.3398437 0.2959,0.2197266 0.44532,0.5097656 0.44532,0.8671875 z m -3.58594,1.6640625 c 0.77344,-0.061523 1.38867,-0.2460937 1.85156,-0.5507812 0.46875,-0.3046875 0.70313,-0.6738282 0.70313,-1.1132813 0,-0.2167969 -0.0586,-0.3984375 -0.17578,-0.5390625 -0.11719,-0.140625 -0.29004,-0.2109375 -0.51563,-0.2109375 -0.27539,0 -0.53906,0.1142578 -0.79687,0.3398438 -0.25782,0.2197265 -0.48047,0.515625 -0.66797,0.890625 -0.1875,0.375 -0.32227,0.7705078 -0.39844,1.1835937 z m 8.99414,2.32031251 0.97266,0.15234375 -0.0469,0.3164062525 h -3.14062 l 0.0469,-0.3164062525 1.03125,-0.15234375 1.21875,-6.92578121 -0.97266,-0.1523438 0.0469,-0.3164062 h 3.14062 l -0.0469,0.3164062 -1.04297,0.1523438 z m 6.25781,-3.91406251 c 0,-0.1787109 -0.0469,-0.3222656 -0.14062,-0.4335937 -0.0937,-0.1083985 -0.24317,-0.1640625 -0.44532,-0.1640625 -0.29003,0 -0.60644,0.1259765 -0.94921,0.375 -0.34571,0.243164 -0.62696,0.5478515 -0.84375,0.9140625 L 123.6623,1.953125e-4 h -0.97265 l 0.89062,-5.1093750125 -0.6914,-0.140625 0.0469,-0.2695312 h 1.62891 l -0.15235,1.125 c 0.32813,-0.421875 0.66797,-0.7382813 1.01954,-0.9492188 0.35156,-0.2109375 0.69433,-0.3164062 1.03125,-0.3164062 0.39843,0 0.69433,0.1113281 0.89062,0.328125 0.20215,0.2109375 0.30469,0.515625 0.30469,0.9140625 0,0.055664 -0.009,0.140625 -0.0234,0.2578125 -0.0176,0.1113281 -0.23144,1.359375 -0.64453,3.74999996 l 0.77344,0.140625 -0.0469,0.2695312525 h -1.76953 L 126.54512,-3.4099609 c 0.0937,-0.4980469 0.14062,-0.8232422 0.14062,-0.9726563 z m 5.52832,2.765625 c 0,0.5859375 -0.1875,1.02539064 -0.5625,1.31250001 -0.375,0.28125 -0.94336,0.421875 -1.69922,0.421875 -0.53906,0 -1.08691,-0.12011719 -1.64062,-0.36328125 l 0.23437,-1.32421876 h 0.26954 l 0.0937,0.79687501 c 0.0996,0.11132813 0.24609,0.20800781 0.43359,0.29296875 0.1875,0.0878906 0.39844,0.12890625 0.63281,0.12890625 0.84961,0 1.27735,-0.34570312 1.27735,-1.04296871 0,-0.234375 -0.0908,-0.4394532 -0.26954,-0.6210938 -0.18164,-0.1787109 -0.47754,-0.3662109 -0.89062,-0.5625 -0.39258,-0.1933594 -0.68555,-0.4042969 -0.87891,-0.6328125 -0.1875,-0.234375 -0.28125,-0.5068359 -0.28125,-0.8203125 0,-0.515625 0.16992,-0.9140625 0.51563,-1.1953125 0.35156,-0.2871094 0.83496,-0.4335937 1.45312,-0.4335937 0.43653,0 0.96094,0.070312 1.57032,0.2109375 l -0.22266,1.21875 h -0.26953 l -0.082,-0.6328125 c -0.25196,-0.2167969 -0.57422,-0.328125 -0.97266,-0.328125 -0.32227,0 -0.58008,0.076172 -0.77344,0.2226562 -0.1875,0.1494141 -0.28125,0.375 -0.28125,0.6796875 0,0.2109375 0.082,0.3984375 0.2461,0.5625 0.16406,0.1582031 0.47168,0.3515625 0.92578,0.5859375 0.40429,0.2109375 0.70312,0.4394531 0.89062,0.6796875 0.1875,0.2431641 0.28125,0.5244141 0.28125,0.84375 z m 2.18555,0.5976563 c 0,0.17285152 0.041,0.30468746 0.12891,0.39843746 0.0937,0.0878906 0.20507,0.12890625 0.33984,0.12890625 0.28711,0 0.58594,-0.0585938 0.89062,-0.17578125 l 0.12891,0.26953125 c -0.48633,0.34570313 -0.97266,0.515625 -1.46484,0.515625 -0.30469,0 -0.54785,-0.09375 -0.72657,-0.28125 -0.18164,-0.1875 -0.26953,-0.44824219 -0.26953,-0.78515625 0,-0.11718746 0.0117,-0.24902346 0.0352,-0.39843746 0.0234,-0.1552735 0.2373,-1.3769532 0.64453,-3.6679688 h -0.72656 l 0.0469,-0.2695312 0.78516,-0.2226563 0.79687,-1.2539062 h 0.375 l -0.21093,1.2539062 h 1.2539 l -0.0937,0.4921875 h -1.2539 l -0.57422,3.2109375 c -0.0703,0.3603516 -0.10547,0.6210938 -0.10547,0.7851563 z m 5.99414,-4.640625 c 0.19336,0 0.35156,0.017578 0.46875,0.046875 l -0.25781,1.4414062 h -0.25781 l -0.22266,-0.7382812 c -0.31348,0 -0.63867,0.1230468 -0.97266,0.3632812 -0.32812,0.234375 -0.63281,0.5478516 -0.91406,0.9375 l -0.62109,3.6093750125 h -0.97266 l 0.89063,-5.0976562125 -0.69141,-0.1523438 0.0469,-0.2578125 h 1.62891 l -0.1875,1.2421875 c 0.2959,-0.4453125 0.62402,-0.7880859 0.98438,-1.03125 0.35742,-0.2402344 0.71777,-0.3632812 1.07812,-0.3632812 z m 2.02148,4.5234375 c 0,0.18164059 0.0469,0.32519527 0.14063,0.43359371 0.0937,0.11132813 0.24023,0.1640625 0.44531,0.1640625 0.2959,0 0.61231,-0.12011719 0.94922,-0.36328125 0.34277,-0.24902346 0.62402,-0.55078126 0.84375,-0.90234376 l 0.64453,-3.703125 h 0.97266 l -0.89063,5.09765626 0.69141,0.140625 -0.0469,0.2695312525 h -1.6289 L 144.68867,-1.1365234 c -0.32226,0.42187496 -0.65625,0.74414059 -1.00781,0.96093746 -0.35156,0.2109375 -0.7002,0.31640625 -1.04297,0.31640625 -0.39844,0 -0.70019,-0.10546875 -0.90234,-0.31640625 -0.19629,-0.21679687 -0.29297,-0.52734375 -0.29297,-0.92578126 0,-0.052734 0.0117,-0.1552734 0.0352,-0.3046875 0.0234,-0.1552734 0.23438,-1.3886719 0.63282,-3.703125 l -0.65625,-0.140625 0.0469,-0.2578125 h 1.65235 l -0.59766,3.3984375 c -0.0937,0.4921875 -0.14063,0.8173828 -0.14063,0.9726563 z m 8.96485,0.30468746 c -0.31348,0.29003906 -0.66797,0.52148438 -1.06641,0.69140625 -0.39258,0.16992188 -0.76758,0.2578125 -1.125,0.2578125 -0.62695,0 -1.11035,-0.17871094 -1.45312,-0.5390625 -0.34571,-0.36621094 -0.51563,-0.87011721 -0.51563,-1.51171871 0,-0.6796875 0.13477,-1.3007813 0.41016,-1.8632813 0.27246,-0.5625 0.65918,-1.0107422 1.16015,-1.3476562 0.50684,-0.3427735 1.03711,-0.515625 1.59375,-0.515625 0.28125,0 0.57715,0.032227 0.89063,0.09375 0.31055,0.055664 0.56836,0.1259765 0.77344,0.2109375 l -0.26953,1.5351562 h -0.31641 l -0.0937,-1.0195312 c -0.25195,-0.2402344 -0.58008,-0.3632813 -0.98438,-0.3632813 -0.375,0 -0.72656,0.140625 -1.05468,0.421875 -0.32813,0.2753906 -0.5918,0.6621094 -0.78516,1.1601563 -0.19629,0.4921875 -0.29297,1.0371093 -0.29297,1.6289062 0,1.00195314 0.40137,1.50000001 1.20703,1.50000001 0.5625,0 1.14258,-0.19335937 1.7461,-0.58593751 z m 2.39941,-0.18749996 c 0,0.17285152 0.041,0.30468746 0.12891,0.39843746 0.0937,0.0878906 0.20508,0.12890625 0.33984,0.12890625 0.28711,0 0.58594,-0.0585938 0.89063,-0.17578125 l 0.1289,0.26953125 c -0.48632,0.34570313 -0.97265,0.515625 -1.46484,0.515625 -0.30469,0 -0.54785,-0.09375 -0.72656,-0.28125 -0.18164,-0.1875 -0.26953,-0.44824219 -0.26953,-0.78515625 0,-0.11718746 0.0117,-0.24902346 0.0352,-0.39843746 0.0234,-0.1552735 0.23731,-1.3769532 0.64453,-3.6679688 h -0.72656 l 0.0469,-0.2695312 0.78515,-0.2226563 0.79688,-1.2539062 h 0.375 l -0.21094,1.2539062 h 1.25391 l -0.0937,0.4921875 h -1.25391 l -0.57422,3.2109375 c -0.0703,0.3603516 -0.10547,0.6210938 -0.10547,0.7851563 z m 3.46289,0.60937496 0.92578,0.140625 -0.0469,0.2695312525 h -1.92188 l 0.90235,-5.0976562125 -0.76172,-0.1523438 0.0469,-0.2578125 h 1.75782 z m 1.26563,-6.90234376 c 0,0.1728516 -0.0645,0.3222656 -0.1875,0.4453125 -0.12598,0.1259766 -0.27832,0.1875 -0.45703,0.1875 -0.17285,0 -0.32227,-0.061523 -0.44532,-0.1875 -0.12597,-0.1230469 -0.1875,-0.2724609 -0.1875,-0.4453125 0,-0.1699219 0.0615,-0.3193359 0.1875,-0.4453125 0.12305,-0.1230469 0.27247,-0.1875 0.44532,-0.1875 0.17871,0 0.33105,0.064453 0.45703,0.1875 0.12304,0.1259766 0.1875,0.2753906 0.1875,0.4453125 z m 1.71972,5.3203125 c 0,0.5244141 0.0996,0.9257813 0.30469,1.20703126 0.20215,0.28125 0.48633,0.421875 0.85547,0.421875 0.35742,0 0.69727,-0.140625 1.01953,-0.421875 0.31934,-0.28710936 0.57422,-0.67968746 0.76172,-1.17187496 0.1875,-0.4980469 0.28125,-1.03125 0.28125,-1.59375 0,-0.5390625 -0.10254,-0.9492188 -0.30469,-1.2304688 -0.20507,-0.28125 -0.49804,-0.421875 -0.8789,-0.421875 -0.36035,0 -0.7002,0.1464844 -1.01953,0.4335938 -0.31348,0.28125 -0.5625,0.6738281 -0.75,1.171875 -0.18164,0.4921875 -0.26954,1.0283203 -0.26954,1.6054687 z m 1.11329,2.10937501 c -0.65039,0 -1.16895,-0.20507812 -1.5586,-0.62109375 -0.39258,-0.421875 -0.58594,-0.98437496 -0.58594,-1.68749996 0,-0.6328125 0.13184,-1.2128907 0.39844,-1.7460938 0.27246,-0.5390625 0.64746,-0.9609375 1.125,-1.265625 0.47461,-0.3046875 1.01367,-0.4570312 1.61719,-0.4570312 0.64746,0 1.16602,0.2109375 1.55859,0.6328125 0.38965,0.4160156 0.58594,0.9726562 0.58594,1.6757812 0,0.6328125 -0.13769,1.21875 -0.41016,1.7578125 -0.2666,0.5332031 -0.6416,0.94921876 -1.125,1.25390626 -0.47753,0.3046875 -1.01367,0.45703125 -1.60546,0.45703125 z m 7.92187,-4.50000001 c 0,-0.1787109 -0.0469,-0.3222656 -0.14062,-0.4335937 -0.0937,-0.1083985 -0.24317,-0.1640625 -0.44532,-0.1640625 -0.29004,0 -0.60644,0.1259765 -0.94922,0.375 -0.3457,0.243164 -0.62695,0.5478515 -0.84375,0.9140625 l -0.64453,3.6914062125 h -0.97265 l 0.89062,-5.1093750125 -0.6914,-0.140625 0.0469,-0.2695312 h 1.62891 l -0.15235,1.125 c 0.32813,-0.421875 0.66797,-0.7382813 1.01953,-0.9492188 0.35157,-0.2109375 0.69434,-0.3164062 1.03125,-0.3164062 0.39844,0 0.69434,0.1113281 0.89063,0.328125 0.20215,0.2109375 0.30469,0.515625 0.30469,0.9140625 0,0.055664 -0.009,0.140625 -0.0234,0.2578125 -0.0176,0.1113281 -0.23145,1.359375 -0.64453,3.74999996 l 0.77344,0.140625 -0.0469,0.2695312525 h -1.76953 L 169.12227,-3.4099609 c 0.0937,-0.4980469 0.14062,-0.8232422 0.14062,-0.9726563 z m 5.625,2.765625 c 0,0.5859375 -0.1875,1.02539064 -0.5625,1.31250001 -0.375,0.28125 -0.94336,0.421875 -1.69922,0.421875 -0.53906,0 -1.08691,-0.12011719 -1.64062,-0.36328125 l 0.23437,-1.32421876 h 0.26953 l 0.0937,0.79687501 c 0.0996,0.11132813 0.2461,0.20800781 0.4336,0.29296875 0.1875,0.0878906 0.39843,0.12890625 0.63281,0.12890625 0.84961,0 1.27734,-0.34570312 1.27734,-1.04296871 0,-0.234375 -0.0908,-0.4394532 -0.26953,-0.6210938 -0.18164,-0.1787109 -0.47754,-0.3662109 -0.89062,-0.5625 -0.39258,-0.1933594 -0.68555,-0.4042969 -0.87891,-0.6328125 -0.1875,-0.234375 -0.28125,-0.5068359 -0.28125,-0.8203125 0,-0.515625 0.16992,-0.9140625 0.51563,-1.1953125 0.35156,-0.2871094 0.83496,-0.4335937 1.45312,-0.4335937 0.43652,0 0.96094,0.070312 1.57031,0.2109375 l -0.22265,1.21875 h -0.26953 l -0.082,-0.6328125 c -0.25195,-0.2167969 -0.57421,-0.328125 -0.97265,-0.328125 -0.32227,0 -0.58008,0.076172 -0.77344,0.2226562 -0.1875,0.1494141 -0.28125,0.375 -0.28125,0.6796875 0,0.2109375 0.082,0.3984375 0.24609,0.5625 0.16407,0.1582031 0.47168,0.3515625 0.92579,0.5859375 0.40429,0.2109375 0.70312,0.4394531 0.89062,0.6796875 0.1875,0.2431641 0.28125,0.5244141 0.28125,0.84375 z m 0,0"
       style="display:inline;fill:#365f91;fill-opacity:1;fill-rule:nonzero;stroke:none"
       aria-label="6-Panel Spherical Cube Instructions"
       transform="matrix(1.3333333,0,0,1.3333333,520.93333,38.933333)"
       clip-path="url(#clipPath2)" /><text
       id="text2"
       xml:space="preserve"
       transform="matrix(1.3333333,0,0,1.3333333,739.06667,1028)"
       clip-path="url(#clipPath3)"><tspan
         style="font-variant:normal;font-weight:700;font-size:14px;font-family:'Times New Roman';writing-mode:lr-tb;fill:#365f91;fill-opacity:1;fill-rule:nonzero;stroke:none"
         x="0"
         y="0"
         id="tspan2">1</tspan></text><text
       id="text3"
       xml:space="preserve"
       transform="matrix(1.3333333,0,0,1.3333333,747.336,1028)"
       clip-path="url(#clipPath4)"><tspan
         style="font-variant:normal;font-weight:700;font-size:14px;font-family:'Times New Roman';writing-mode:lr-tb;fill:#365f91;fill-opacity:1;fill-rule:nonzero;stroke:none"
         x="0"
         y="0"
         id="tspan3">1</tspan></text><path
       style="display:inline;fill:#000000"
       d="m -602.61377,578.42983 c -1.1618,-1.3999 -0.33356,-3.04774 1.4076,-2.80049 1.05533,0.14986 1.44286,0.63227 1.44286,1.79612 0,1.86734 -1.65135,2.4492 -2.85046,1.00437 z"
       id="path50" /><path
       style="display:inline;fill:#000000"
       d="m -617.77187,578.39423 c -0.56166,-1.46368 0.22518,-2.88 1.6,-2.88 1.51375,0 2.29094,1.76859 1.30124,2.96112 -0.96289,1.16021 -2.44075,1.11889 -2.90124,-0.0811 z"
       id="path49" /><path
       style="display:inline;fill:#000000"
       d="m -587.69187,579.03423 c -0.507,-1.32123 0.18043,-2.88 1.27011,-2.88 1.28119,0 2.54969,1.7264 2.11014,2.87185 -0.47981,1.25035 -2.90133,1.25619 -3.38025,0.008 z"
       id="path48" /><path
       style="display:inline;fill:#000000"
       d="m -633.13187,579.03423 c -0.507,-1.32123 0.18043,-2.88 1.27011,-2.88 1.28119,0 2.54969,1.7264 2.11014,2.87185 -0.47981,1.25035 -2.90133,1.25619 -3.38025,0.008 z"
       id="path47" /><path
       style="display:inline;fill:#000000"
       d="m -572.1976,580.90851 c -1.28715,-1.28715 -0.57602,-2.83428 1.30276,-2.83428 1.18871,0 1.53153,0.34282 1.53153,1.53153 0,1.87878 -1.54713,2.58991 -2.83429,1.30275 z"
       id="path46" /><path
       style="display:inline;fill:#000000"
       d="m -647.7176,580.90851 c -1.28715,-1.28715 -0.57602,-2.83428 1.30276,-2.83428 1.18871,0 1.53153,0.34282 1.53153,1.53153 0,1.87878 -1.54713,2.58991 -2.83429,1.30275 z"
       id="path45" /><path
       style="display:inline;fill:#000000"
       d="m -703.3976,650.02851 c -1.28715,-1.28715 -0.57602,-2.83428 1.30276,-2.83428 1.18871,0 1.53153,0.34282 1.53153,1.53153 0,1.87878 -1.54713,2.58991 -2.83429,1.30275 z"
       id="path31" /><path
       style="display:inline;fill:#000000"
       d="m -557.41664,583.40756 c -0.81075,-0.81074 -0.42299,-2.6378 0.64696,-3.04838 1.3595,-0.52169 3.06753,1.12712 2.55397,2.46542 -0.38898,1.01368 -2.40335,1.38054 -3.20093,0.58296 z"
       id="path44" /><path
       style="display:inline;fill:#000000"
       d="m -663.01664,583.40756 c -0.81075,-0.81074 -0.42299,-2.6378 0.64696,-3.04838 1.3595,-0.52169 3.06753,1.12712 2.55397,2.46542 -0.38898,1.01368 -2.40335,1.38054 -3.20093,0.58296 z"
       id="path43" /><path
       style="display:inline;fill:#000000"
       d="m -542.69664,586.60756 c -0.81075,-0.81074 -0.42299,-2.6378 0.64696,-3.04838 1.3595,-0.52169 3.06753,1.12712 2.55397,2.46542 -0.38898,1.01368 -2.40335,1.38054 -3.20093,0.58296 z"
       id="path42" /><path
       style="display:inline;fill:#000000"
       d="m -677.73664,586.60756 c -0.81075,-0.81074 -0.42299,-2.6378 0.64696,-3.04838 1.3595,-0.52169 3.06753,1.12712 2.55397,2.46542 -0.38898,1.01368 -2.40335,1.38054 -3.20093,0.58296 z"
       id="path41" /><path
       style="display:inline;fill:#000000"
       d="m -527.66628,590.94774 c -1.29545,-0.82096 -0.6079,-2.92442 1.03237,-3.1584 1.71989,-0.24534 2.56419,1.399 1.42384,2.77304 -0.90513,1.0906 -1.2564,1.14572 -2.45621,0.38536 z"
       id="path40" /><path
       style="display:inline;fill:#000000"
       d="m -692.14628,590.94774 c -1.29545,-0.82096 -0.6079,-2.92442 1.03237,-3.1584 1.71989,-0.24534 2.56419,1.399 1.42384,2.77304 -0.90513,1.0906 -1.2564,1.14572 -2.45621,0.38536 z"
       id="path39" /><path
       style="display:inline;fill:#000000"
       d="m -523.91655,605.28238 c -1.14035,-1.37404 -0.29605,-3.01838 1.42384,-2.77304 1.64027,0.23398 2.32782,2.33744 1.03237,3.1584 -1.19981,0.76036 -1.55108,0.70524 -2.45621,-0.38536 z"
       id="path38" /><path
       style="display:inline;fill:#000000"
       d="m -695.92331,605.81037 c -0.44,-0.17755 -0.8,-1.01881 -0.8,-1.86948 0,-1.20467 0.33865,-1.54666 1.53153,-1.54666 1.89497,0 2.58626,1.55078 1.27556,2.86148 -0.53818,0.53818 -1.02995,0.95578 -1.0928,0.92799 -0.0629,-0.0278 -0.47429,-0.19579 -0.91429,-0.37333 z"
       id="path37" /><path
       style="display:inline;fill:#000000"
       d="m -520.71655,620.00238 c -1.14035,-1.37404 -0.29605,-3.01838 1.42384,-2.77304 1.64027,0.23398 2.32782,2.33744 1.03237,3.1584 -1.19981,0.76036 -1.55108,0.70524 -2.45621,-0.38536 z"
       id="path36" /><path
       style="display:inline;fill:#000000"
       d="m -699.12331,620.53037 c -0.44,-0.17755 -0.8,-1.01881 -0.8,-1.86948 0,-1.20467 0.33865,-1.54666 1.53153,-1.54666 1.89497,0 2.58626,1.55078 1.27556,2.86148 -0.53818,0.53818 -1.02995,0.95578 -1.0928,0.92799 -0.0629,-0.0278 -0.47429,-0.19579 -0.91429,-0.37333 z"
       id="path35" /><path
       style="display:inline;fill:#000000"
       d="m -518.57187,634.71423 c -0.507,-1.32123 0.18043,-2.88 1.27011,-2.88 1.28119,0 2.54969,1.7264 2.11014,2.87185 -0.47981,1.25035 -2.90133,1.25619 -3.38025,0.008 z"
       id="path34" /><path
       style="display:inline;fill:#000000"
       d="m -702.25187,634.71423 c -0.507,-1.32123 0.18043,-2.88 1.27011,-2.88 1.28119,0 2.54969,1.7264 2.11014,2.87185 -0.47981,1.25035 -2.90133,1.25619 -3.38025,0.008 z"
       id="path33" /><path
       style="display:inline;fill:#000000"
       d="m -516.5176,650.02851 c -1.28715,-1.28715 -0.57602,-2.83428 1.30276,-2.83428 1.18871,0 1.53153,0.34282 1.53153,1.53153 0,1.87878 -1.54713,2.58991 -2.83429,1.30275 z"
       id="path32" /><path
       style="display:inline;fill:#000000"
       d="m -516.24331,664.22269 c 0,-1.87879 1.54713,-2.58991 2.83429,-1.30276 1.28715,1.28716 0.57602,2.83429 -1.30276,2.83429 -1.18871,0 -1.53153,-0.34283 -1.53153,-1.53153 z"
       id="path30" /><path
       style="display:inline;fill:#000000"
       d="m -704.81369,664.78948 c -0.22256,-0.57998 0.0156,-1.47477 0.52924,-1.9884 1.28058,-1.28059 3.20134,-0.45208 2.95498,1.2746 -0.24273,1.70122 -2.89667,2.24492 -3.48422,0.7138 z"
       id="path29" /><path
       style="display:inline;fill:#000000"
       d="m -516.01187,680.15419 c -0.56166,-1.46368 0.22518,-2.88 1.6,-2.88 1.51375,0 2.29094,1.76859 1.30124,2.96112 -0.96289,1.16021 -2.44075,1.11889 -2.90124,-0.0811 z"
       id="path28" /><path
       style="display:inline;fill:#000000"
       d="m -704.37377,680.18979 c -1.1618,-1.3999 -0.33356,-3.04774 1.4076,-2.80049 1.05533,0.14986 1.44286,0.63227 1.44286,1.79612 0,1.86734 -1.65135,2.4492 -2.85046,1.00437 z"
       id="path27" /><path
       style="display:inline;fill:#000000"
       d="m -516.5176,695.46851 c -1.28715,-1.28715 -0.57602,-2.83428 1.30276,-2.83428 1.18871,0 1.53153,0.34282 1.53153,1.53153 0,1.87878 -1.54713,2.58991 -2.83429,1.30275 z"
       id="path26" /><path
       style="display:inline;fill:#000000"
       d="m -703.3976,695.46851 c -1.28715,-1.28715 -0.57602,-2.83428 1.30276,-2.83428 1.18871,0 1.53153,0.34282 1.53153,1.53153 0,1.87878 -1.54713,2.58991 -2.83429,1.30275 z"
       id="path25" /><path
       style="display:inline;fill:#000000"
       d="m -518.57187,710.23423 c -0.507,-1.32123 0.18043,-2.88 1.27011,-2.88 1.28119,0 2.54969,1.7264 2.11014,2.87185 -0.47981,1.25035 -2.90133,1.25619 -3.38025,0.008 z"
       id="path24" /><path
       style="display:inline;fill:#000000"
       d="m -702.25187,710.23423 c -0.507,-1.32123 0.18043,-2.88 1.27011,-2.88 1.28119,0 2.54969,1.7264 2.11014,2.87185 -0.47981,1.25035 -2.90133,1.25619 -3.38025,0.008 z"
       id="path23" /><path
       style="display:inline;fill:#000000"
       d="m -520.71655,725.60238 c -1.14035,-1.37404 -0.29605,-3.01838 1.42384,-2.77304 1.64027,0.23398 2.32782,2.33744 1.03237,3.1584 -1.19981,0.76036 -1.55108,0.70524 -2.45621,-0.38536 z"
       id="path22" /><path
       style="display:inline;fill:#000000"
       d="m -699.12331,726.13037 c -0.44,-0.17755 -0.8,-1.01881 -0.8,-1.86948 0,-1.20467 0.33865,-1.54666 1.53153,-1.54666 1.89497,0 2.58626,1.55078 1.27556,2.86148 -0.53818,0.53818 -1.02995,0.95578 -1.0928,0.92799 -0.0629,-0.0278 -0.47429,-0.19579 -0.91429,-0.37333 z"
       id="path21" /><path
       style="display:inline;fill:#000000"
       d="m -523.91655,740.32238 c -1.14035,-1.37404 -0.29605,-3.01838 1.42384,-2.77304 1.64027,0.23398 2.32782,2.33744 1.03237,3.1584 -1.19981,0.76036 -1.55108,0.70524 -2.45621,-0.38536 z"
       id="path20" /><path
       style="display:inline;fill:#000000"
       d="m -695.92331,740.85037 c -0.44,-0.17755 -0.8,-1.01881 -0.8,-1.86948 0,-1.20467 0.33865,-1.54666 1.53153,-1.54666 1.89497,0 2.58626,1.55078 1.27556,2.86148 -0.53818,0.53818 -1.02995,0.95578 -1.0928,0.92799 -0.0629,-0.0278 -0.47429,-0.19579 -0.91429,-0.37333 z"
       id="path19" /><path
       style="display:inline;fill:#000000"
       d="m -587.69187,765.91423 c -0.507,-1.32123 0.18043,-2.88 1.27011,-2.88 1.28119,0 2.54969,1.7264 2.11014,2.87185 -0.47981,1.25035 -2.90133,1.25619 -3.38025,0.008 z"
       id="path10" /><path
       style="display:inline;fill:#000000"
       d="m -527.66628,755.42774 c -1.29545,-0.82096 -0.6079,-2.92442 1.03237,-3.1584 1.71989,-0.24534 2.56419,1.399 1.42384,2.77304 -0.90513,1.0906 -1.2564,1.14572 -2.45621,0.38536 z"
       id="path18" /><path
       style="display:inline;fill:#000000"
       d="m -692.14628,755.42774 c -1.29545,-0.82096 -0.6079,-2.92442 1.03237,-3.1584 1.71989,-0.24534 2.56419,1.399 1.42384,2.77304 -0.90513,1.0906 -1.2564,1.14572 -2.45621,0.38536 z"
       id="path17" /><path
       style="display:inline;fill:#000000"
       d="m -542.89187,758.87423 c -0.5744,-1.49686 0.23655,-2.88 1.68856,-2.88 1.6283,0 2.33666,1.60681 1.27324,2.88815 -1.01628,1.22453 -2.49033,1.22047 -2.9618,-0.008 z"
       id="path16" /><path
       style="display:inline;fill:#000000"
       d="m -677.93187,758.87423 c -0.5744,-1.49686 0.23655,-2.88 1.68856,-2.88 1.6283,0 2.33666,1.60681 1.27324,2.88815 -1.01628,1.22453 -2.49033,1.22047 -2.9618,-0.008 z"
       id="path15" /><path
       style="display:inline;fill:#000000"
       d="m -557.61187,762.07423 c -0.5744,-1.49686 0.23655,-2.88 1.68856,-2.88 1.6283,0 2.33666,1.60681 1.27324,2.88815 -1.01628,1.22453 -2.49033,1.22047 -2.9618,-0.008 z"
       id="path14" /><path
       style="display:inline;fill:#000000"
       d="m -663.21187,762.07423 c -0.5744,-1.49686 0.23655,-2.88 1.68856,-2.88 1.6283,0 2.33666,1.60681 1.27324,2.88815 -1.01628,1.22453 -2.49033,1.22047 -2.9618,-0.008 z"
       id="path13" /><path
       style="display:inline;fill:#000000"
       d="m -572.1976,764.58851 c -1.28715,-1.28715 -0.57602,-2.83428 1.30276,-2.83428 1.18871,0 1.53153,0.34282 1.53153,1.53153 0,1.87878 -1.54713,2.58991 -2.83429,1.30275 z"
       id="path12" /><path
       style="display:inline;fill:#000000"
       d="m -647.7176,764.58851 c -1.28715,-1.28715 -0.57602,-2.83428 1.30276,-2.83428 1.18871,0 1.53153,0.34282 1.53153,1.53153 0,1.87878 -1.54713,2.58991 -2.83429,1.30275 z"
       id="path11" /><path
       style="display:inline;fill:#000000"
       d="m -603.05369,766.54949 c -0.22256,-0.57998 0.0156,-1.47477 0.52924,-1.9884 1.28058,-1.28059 3.20134,-0.45208 2.95498,1.2746 -0.24273,1.70122 -2.89667,2.24492 -3.48422,0.7138 z"
       id="path8" /><path
       style="display:inline;fill:#000000"
       d="m -633.13187,765.91423 c -0.507,-1.32123 0.18043,-2.88 1.27011,-2.88 1.28119,0 2.54969,1.7264 2.11014,2.87185 -0.47981,1.25035 -2.90133,1.25619 -3.38025,0.008 z"
       id="path9" /><path
       style="display:inline;fill:#000000"
       d="m -618.00331,765.9827 c 0,-1.87879 1.54713,-2.58991 2.83429,-1.30276 1.28715,1.28716 0.57602,2.83429 -1.30276,2.83429 -1.18871,0 -1.53153,-0.34283 -1.53153,-1.53153 z"
       id="path7" /></g></svg>
